<svg height="511pt" viewBox="0 1 511 511.999" width="511pt" xmlns="http://www.w3.org/2000/svg"><path d="m74.269531 252.722656c-3.058593-4.59375-9.265625-5.832031-13.859375-2.773437-4.589844 3.058593-5.832031 9.265625-2.773437 13.859375 12.632812 18.960937 31.246093 39.898437 55.316406 62.238281 1.925781 1.785156 4.363281 2.664063 6.796875 2.664063 2.683594 0 5.359375-1.074219 7.328125-3.195313 3.753906-4.042969 3.515625-10.367187-.53125-14.121094-22.597656-20.972656-40.675781-41.261719-52.277344-58.671875zm0 0"/><path d="m60.457031 221.484375c0-.011719 0-.101563 0-.113281 0-5.511719-4.460937-9.945313-9.972656-9.953125-.007813 0-.011719 0-.019531 0-5.503906 0-9.972656 4.492187-9.992188 9.996093v.355469c.09375 5.464844 4.546875 9.851563 9.992188 9.851563h.167968c5.519532-.09375 9.917969-4.617188 9.824219-10.136719zm0 0"/><path d="m511.015625 398.453125-18.214844-34.863281c-9.550781-18.277344-21.792969-34.941406-36.375-49.527344l-49.785156-49.785156c-5.679687-5.675782-13.226563-8.804688-21.253906-8.804688-8.027344 0-15.578125 3.128906-21.253907 8.804688-3.21875 3.222656-5.554687 6.996094-7.003906 11.019531-3.335937-1.25-6.902344-1.902344-10.570312-1.902344-4.453125 0-8.757813.964844-12.675782 2.789063 11.757813-20.007813 17.703126-38.355469 17.703126-54.8125 0-63.359375-47.5-114.90625-105.886719-114.90625-25.617188 0-50.476563 10.226562-69.65625 28.371094-19.183594-18.144532-44.039063-28.371094-69.660157-28.371094-58.382812 0-105.882812 51.546875-105.882812 114.90625 0 36.558594 28.929688 81.855468 85.980469 134.636718 41.457031 38.351563 82.226562 66.191407 83.941406 67.355469 1.695313 1.152344 3.65625 1.730469 5.617187 1.730469 1.964844 0 3.925782-.578125 5.621094-1.730469 1.496094-1.015625 35.003906-23.894531 72.125-56.679687l34.160156 34.160156-9.628906-2.875c-16.273437-4.859375-33.1875 3.96875-38.503906 20.101562-4.546875 13.804688.9375 28.742188 13.339844 36.324219l55.574218 33.972657c13.179688 8.054687 27.597657 13.339843 42.859376 15.714843l50.117187 7.796875c.519531.082032 1.035156.121094 1.546875.121094 4.84375 0 9.09375-3.527344 9.863281-8.460938.847657-5.453124-2.886719-10.558593-8.339843-11.410156l-50.117188-7.792968c-12.640625-1.96875-24.585938-6.347657-35.503906-13.019532l-55.574219-33.972656c-4.445313-2.71875-6.410156-8.070312-4.78125-13.019531 1.90625-5.78125 7.964844-8.945313 13.800781-7.203125l47.511719 14.191406c4.386719 1.3125 9.097656-.527344 11.445313-4.457031 2.34375-3.929688 1.71875-8.949219-1.519532-12.183594l-102.734375-102.734375c-3.925781-3.925781-3.925781-10.316406 0-14.242188 1.902344-1.902343 4.433594-2.949218 7.121094-2.949218 2.691406 0 5.21875 1.046875 7.121094 2.949218l93.261719 93.261719c3.902343 3.902344 10.230468 3.898438 14.132812 0 3.902344-3.902343 3.902344-10.230469 0-14.132812l-46.863281-46.863281c-1.902344-1.902344-2.949219-4.433594-2.949219-7.121094 0-2.691406 1.046875-5.21875 2.949219-7.121094 1.902343-1.902344 4.429687-2.949219 7.121093-2.949219 2.6875 0 5.21875 1.046875 7.117188 2.949219l8.972656 8.972656c.003906.003906.011719.007813.015625.015625l37.875 37.875c3.902344 3.902344 10.230469 3.902344 14.132813 0 1.953125-1.953125 2.925781-4.511719 2.925781-7.066406 0-2.558594-.976563-5.117187-2.925781-7.066406l-37.875-37.875c-3.925782-3.925781-3.925782-10.316407 0-14.242188 1.902344-1.902343 4.429687-2.949219 7.121094-2.949219 2.6875 0 5.21875 1.046876 7.121093 2.949219l37.875 37.875c3.902344 3.902344 10.230469 3.902344 14.132813 0 3.902344-3.902343 3.902344-10.230469 0-14.132812l-27.421875-27.421875c-1.902344-1.902344-2.949219-4.429688-2.949219-7.121094 0-2.6875 1.046875-5.214844 2.949219-7.121094 1.902343-1.898437 4.429687-2.949218 7.121093-2.949218 2.6875 0 5.21875 1.050781 7.121094 2.953124l49.785156 49.785157c13.148438 13.148437 24.179688 28.171875 32.792969 44.652343l18.21875 34.863282c2.554688 4.890625 8.59375 6.785156 13.484375 4.226562 4.894532-2.558594 6.789063-8.59375 4.230469-13.488281zm-228.976563-88.53125-26.363281-26.359375c-5.675781-5.675781-13.222656-8.804688-21.253906-8.804688-8.027344 0-15.574219 3.128907-21.253906 8.804688-11.71875 11.71875-11.71875 30.789062 0 42.507812l26.453125 26.453126c-27.148438 23.878906-52.636719 42.585937-63.582032 50.378906-12.589843-8.960938-44.425781-32.367188-75.984374-61.5625-52.054688-48.15625-79.570313-89.640625-79.570313-119.964844 0-52.339844 38.535156-94.917969 85.898437-94.917969 23.667969 0 45.722657 10.425781 62.101563 29.363281 1.894531 2.191407 4.65625 3.453126 7.554687 3.453126 2.902344 0 5.660157-1.261719 7.558594-3.453126 16.378906-18.9375 38.433594-29.363281 62.101563-29.363281 47.363281 0 85.898437 42.578125 85.898437 94.917969 0 20.320312-12.242187 45.496094-36.371094 74.839844-2.652343 1.394531-5.105468 3.195312-7.285156 5.375-2.464844 2.460937-4.445312 5.277344-5.902344 8.332031zm0 0"/><path d="m176.039062 19.988281c2.628907 0 5.207032-1.070312 7.066407-2.929687s2.925781-4.4375 2.925781-7.066406c0-2.636719-1.066406-5.207032-2.925781-7.0625-1.859375-1.871094-4.4375-2.929688-7.066407-2.929688-2.628906 0-5.207031 1.058594-7.0625 2.929688-1.859374 1.855468-2.929687 4.425781-2.929687 7.0625 0 2.628906 1.070313 5.207031 2.929687 7.066406 1.855469 1.859375 4.4375 2.929687 7.0625 2.929687zm0 0"/><path d="m232.449219 85.105469c2.558593 0 5.113281-.976563 7.066406-2.925781l24.4375-24.4375c3.902344-3.902344 3.902344-10.230469 0-14.132813s-10.230469-3.902344-14.132813 0l-24.4375 24.4375c-3.902343 3.902344-3.902343 10.230469 0 14.132813 1.953126 1.953124 4.507813 2.925781 7.066407 2.925781zm0 0"/><path d="m112.5 82.105469c1.953125 1.949219 4.507812 2.925781 7.066406 2.925781s5.117188-.976562 7.066406-2.925781c3.902344-3.902344 3.902344-10.230469 0-14.132813l-24.367187-24.371094c-3.902344-3.902343-10.230469-3.902343-14.136719 0-3.902344 3.902344-3.902344 10.230469 0 14.132813zm0 0"/><path d="m176.039062 40.675781c-5.515624 0-9.992187 4.472657-9.992187 9.992188v31.273437c0 5.519532 4.476563 9.992188 9.992187 9.992188 5.519532 0 9.996094-4.472656 9.996094-9.992188v-31.273437c0-5.519531-4.476562-9.992188-9.996094-9.992188zm0 0"/></svg>