<?xml version="1.0" encoding="UTF-8" standalone="no"?>
<svg
   xmlns:dc="http://purl.org/dc/elements/1.1/"
   xmlns:cc="http://creativecommons.org/ns#"
   xmlns:rdf="http://www.w3.org/1999/02/22-rdf-syntax-ns#"
   xmlns:svg="http://www.w3.org/2000/svg"
   xmlns="http://www.w3.org/2000/svg"
   viewBox="0 0 1000 666.66669"
   height="666.66669"
   width="1000"
   xml:space="preserve"
   id="svg2"
   version="1.1"><metadata
     id="metadata8"><rdf:RDF><cc:Work
         rdf:about=""><dc:format>image/svg+xml</dc:format><dc:type
           rdf:resource="http://purl.org/dc/dcmitype/StillImage" /></cc:Work></rdf:RDF></metadata><defs
     id="defs6" /><g
     transform="matrix(1.3333333,0,0,-1.3333333,0,666.66667)"
     id="g10"><g
       transform="scale(0.1)"
       id="g12"><path
         id="path14"
         style="fill:#ffffff;fill-opacity:1;fill-rule:evenodd;stroke:none"
         d="M 6250,0 H 1250 V 5000 H 6250 V 0" /><path
         id="path16"
         style="fill:#ffffff;fill-opacity:1;fill-rule:evenodd;stroke:none"
         d="M 7500,0 H 0 V 5000 H 7500 V 0" /><path
         id="path18"
         style="fill:#d5def0;fill-opacity:1;fill-rule:evenodd;stroke:none"
         d="m 6233.59,4297.95 c -55.95,0 -101.32,45.35 -101.32,101.3 0,55.95 45.37,101.31 101.32,101.31 55.94,0 101.31,-45.36 101.31,-101.31 0,-55.95 -45.37,-101.3 -101.31,-101.3 z M 1931.78,1868.94 h -541.3 c -291.33,0 -529.679,-238.36 -529.679,-529.68 v 0 c 0,-291.33 238.349,-529.678 529.679,-529.678 h 1546.35 266.32 2764.3 c 471.75,0 857.71,385.958 857.71,857.698 v 0 c 0,471.73 -385.96,857.69 -857.7,857.69 h -0.01 c -199.46,0.01 -362.65,163.19 -362.65,362.66 v 0 c 0,199.46 163.2,362.65 362.66,362.65 h 436.46 c 207.37,0 377.04,169.67 377.04,377.04 v 0 c 0,207.38 -169.67,377.04 -377.04,377.04 H 5852 c -80.73,0 -146.79,66.07 -146.79,146.8 v 0 c 0,80.73 66.06,146.79 146.79,146.79 h 97.3 c 55.71,0 101.3,45.59 101.3,101.3 v 0 c 0,55.72 -45.59,101.31 -101.3,101.31 h -364.64 c 0,0 -139.33,0 -273.77,0 -134.46,0 -149.43,-158.84 -489.04,-158.84 -525.01,0 -453.55,0 -978.55,0 -72.71,0 -132.2,-59.49 -132.2,-132.18 v -0.01 c 0,-72.69 59.5,-132.19 132.2,-132.19 h 126.94 c 105.36,0 191.55,-86.2 191.55,-191.53 v -0.01 c 0,-105.34 -86.19,-191.54 -191.55,-191.54 H 3779.2 c -515.91,0 -588.79,-134.83 -679.14,-402.99 -90.36,-268.16 -559.65,-289.78 -559.65,-289.78 h -641.67 c -158.76,0 -288.65,-129.89 -288.65,-288.64 v -0.01 c 0,-158.75 129.89,-288.64 288.65,-288.64 h 33.04 c 152.69,0 277.63,-124.94 277.63,-277.64 v 0 c 0,-152.69 -124.94,-277.62 -277.63,-277.62 v 0" /><path
         id="path20"
         style="fill:#adbee3;fill-opacity:1;fill-rule:evenodd;stroke:none"
         d="m 2023.73,1137.57 197.66,197.66 197.67,-197.66 v -2.67 L 2221.39,937.25 2023.73,1134.9 Z m 0,441.71 197.66,197.66 197.67,-197.66 v -2.67 l -197.67,-197.66 -197.66,197.66 v 2.67 z m 0,883.41 197.66,197.66 197.67,-197.66 v -2.66 l -197.67,-197.68 -197.66,197.68 v 2.66 z m 395.33,-929.79 v -351.61 l -175.81,175.8 175.81,175.81 z m 0,441.7 v -351.61 l -175.81,175.81 175.81,175.8 z m 0,441.71 v -351.62 l -175.81,175.81 175.81,175.81 z m 0,441.71 V 2506.4 l -175.81,175.8 175.81,175.82 z M 2023.73,2506.4 v 351.62 l 175.81,-175.82 -175.81,-175.8 z m 0,-1325.11 v 351.61 l 175.81,-175.81 -175.81,-175.8 z m -46.38,-371.708 h 46.38 V 1091.19 L 2199.54,915.379 2093.73,809.582 h 43.71 l 83.95,83.949 83.95,-83.949 h 43.72 l -105.81,105.797 175.81,175.811 V 809.582 h 46.37 V 3001.49 h -46.37 v -53.39 l -53.4,53.39 h -43.71 l 97.11,-97.1 v -2.66 l -197.67,-197.66 -197.66,197.66 v 2.66 l 97.1,97.1 h -43.71 l -53.39,-53.39 v 53.39 h -46.38 v -581.08 c 15.95,-2.67 31.45,-6.7 46.38,-11.98 v 7.88 l 12.75,-12.75 c 68.83,-28.26 124.03,-83.46 152.29,-152.3 l 10.77,-10.76 -4.88,-4.88 c 3.82,-11.17 6.93,-22.65 9.29,-34.41 l 17.44,17.43 197.67,-197.66 v -2.66 l -197.67,-197.67 -112.52,112.52 c -8,-6.66 -16.38,-12.87 -25.1,-18.61 l 115.77,-115.76 -175.81,-175.81 v 261.7 c -14.93,-5.28 -30.43,-9.31 -46.38,-11.98 v -1063.128 0" /><path
         id="path22"
         style="fill:#adbee3;fill-opacity:1;fill-rule:evenodd;stroke:none"
         d="m 5266.89,1137.57 197.67,197.66 197.67,-197.66 v -2.67 L 5464.56,937.25 5266.89,1134.9 Z m 0,441.71 197.67,197.66 197.67,-197.66 v -2.67 l -197.67,-197.66 -197.67,197.66 v 2.67 z m 0,441.7 197.67,197.66 197.67,-197.66 v -2.66 l -197.67,-197.67 -197.67,197.67 v 2.66 z m 0,441.71 197.67,197.66 197.67,-197.66 v -2.66 l -197.67,-197.68 -197.67,197.68 v 2.66 z m 0,883.41 197.67,197.66 197.67,-197.66 v -2.66 l -197.67,-197.67 -197.67,197.67 v 2.66 z m 0,441.7 197.67,197.67 197.67,-197.67 v -2.66 l -197.67,-197.66 -197.67,197.66 v 2.66 z m 0,441.71 197.67,197.66 197.67,-197.66 v -2.66 l -197.67,-197.67 -197.67,197.67 v 2.66 z M 5662.23,1532.9 v -351.61 l -175.81,175.8 175.81,175.81 z m 0,441.7 v -351.61 l -175.81,175.81 175.81,175.8 z m 0,441.71 v -351.62 l -175.81,175.81 175.81,175.81 z m 0,1325.12 v -351.62 l -175.81,175.81 175.81,175.81 z m 0,441.7 v -351.62 l -175.81,175.82 175.81,175.8 z m -395.34,-351.62 v 351.62 l 175.81,-175.8 -175.81,-175.82 z m 0,-441.7 v 351.62 l 175.81,-175.81 -175.81,-175.81 z m 0,-441.71 v 351.62 L 5442.7,3123.91 5266.89,2948.1 Z m 0,-441.7 v 351.62 L 5442.7,2682.2 5266.89,2506.4 Z m 0,-441.71 v 351.62 L 5442.7,2240.5 5266.89,2064.69 Z m 0,-441.7 v 351.61 l 175.81,-175.8 -175.81,-175.81 z m 0,-441.7 v 351.61 l 175.81,-175.81 -175.81,-175.8 z m -46.36,-371.708 h 46.36 V 1091.19 L 5442.7,915.379 5336.89,809.582 h 43.71 l 83.96,83.949 83.96,-83.949 h 43.71 l -105.81,105.797 175.81,175.811 V 809.582 h 46.37 V 2634.3 c -17.34,17.72 -32.92,37.17 -46.37,58.1 v -186 l -175.81,175.8 127.01,127.01 c -2.74,12.26 -4.83,24.76 -6.28,37.45 l -142.59,-142.59 -197.67,197.66 v 2.66 l 197.67,197.67 146.66,-146.67 c 2.3,11.92 5.15,23.65 8.57,35.15 l -133.37,133.37 175.81,175.81 v -216.86 c 13.45,20.92 29.03,40.38 46.37,58.1 v 978.94 c -2.2,10.08 -3.39,20.54 -3.39,31.26 v 0 c 0,10.72 1.19,21.18 3.39,31.25 v 318.15 h -46.37 v -227.34 l -175.81,175.82 51.53,51.52 h -43.71 l -29.68,-29.67 -29.67,29.67 h -43.72 l 51.53,-51.52 -175.81,-175.82 v 221.01 c -16.4,-4.91 -31.4,-12.37 -46.36,-21.45 v -3663.198 0" /><path
         id="path24"
         style="fill:#adbee3;fill-opacity:1;fill-rule:evenodd;stroke:none"
         d="m 1744.87,1652.42 v -518.1 l -259.05,259.06 z m -582.52,-518.1 v 518.1 l 259.06,-259.04 -259.06,-259.06 z m 650.85,1854.16 c -68.59,-21.44 -126.37,-67.92 -162.56,-128.6 l 94.23,94.23 v -485.16 c 21.1,-13.39 44.04,-24.15 68.33,-31.74 v 551.27 z m 0,-1119.54 h -68.33 v -83.77 l -83.77,83.77 h -64.41 l 148.18,-148.19 v -3.91 l -291.26,-291.25 -291.26,291.25 v 3.91 l 140.91,140.9 c -29.79,-4.99 -58.76,-12.47 -86.67,-22.26 l -54.24,-54.22 v 31.78 c -23.81,-11.44 -46.63,-24.64 -68.32,-39.38 V 900.941 c 21.69,-14.75 44.52,-27.941 68.32,-39.39 V 1001.58 L 1353,810.93 c 12.39,-0.879 24.89,-1.348 37.48,-1.348 h 28.29 l -256.42,256.408 v 3.92 l 291.26,291.26 291.26,-291.26 v -3.92 L 1488.45,809.582 h 64.41 l 192.01,191.998 V 809.582 h 68.33 v 1059.358 0" /><path
         id="path26"
         style="fill:#adbee3;fill-opacity:1;fill-rule:evenodd;stroke:none"
         d="m 5941.09,1720.75 291.25,291.26 291.25,-291.26 v -3.91 l -291.25,-291.25 -291.25,291.25 z m 0,1952.53 291.25,291.25 291.25,-291.25 v -3.92 l -291.25,-291.25 -291.25,291.25 v 3.92 z m 582.5,-2020.86 v -518.1 l -259.04,259.06 259.04,259.04 z m 0,650.84 v -518.09 l -259.04,259.05 259.04,259.04 z m -582.5,-518.09 v 518.09 l 259.05,-259.04 -259.05,-259.05 z m 0,-650.85 v 518.1 l 259.05,-259.04 -259.05,-259.06 z m -68.34,3163.63 h 76.55 c 4.46,0 8.85,0.29 13.18,0.86 l -21.39,21.39 v 3.92 l 104.98,105 c -4.75,15.32 -13.08,29.12 -23.99,40.41 l -80.99,-81.01 v 112.04 h -68.34 v -202.61 z m 0,-1060.32 c 22.03,6 44.89,9.97 68.34,11.69 v 355.63 l 259.05,-259.06 -95.61,-95.61 h 64.4 l 63.41,63.41 63.4,-63.41 h 64.42 l -95.61,95.61 259.04,259.06 v -335.07 c 23.94,8.07 46.8,18.49 68.34,30.97 v 652.95 c -21.54,12.48 -44.4,22.9 -68.34,30.97 V 3737.7 l -259.04,259.04 7.63,7.62 h -79.68 l 7.64,-7.62 -259.05,-259.04 v 266.66 h -68.34 v -766.73 z m 0,-2428.048 h 68.34 v 191.998 l 178.4,-178.408 c 17.86,3.238 35.54,7.066 53.01,11.398 l -231.41,231.42 v 3.92 l 291.25,291.26 291.25,-291.26 v -3.92 L 6366.23,908.621 c 84.49,44.719 160.72,103.159 225.7,172.289 v 1172.73 c -29.49,31.37 -61.27,60.57 -95.11,87.26 l -264.48,-264.47 -291.25,291.25 v 3.91 l 145.06,145.08 c -19.23,2.69 -38.65,4.75 -58.26,6.13 l -86.8,-86.79 v 89.94 c -23.45,1.71 -46.31,5.68 -68.34,11.67 v -1728.038 0" /><path
         id="path28"
         style="fill:#759dcf;fill-opacity:1;fill-rule:evenodd;stroke:none"
         d="m 2178.78,1652.65 h -465.85 c -18.89,0 -34.32,-15.43 -34.32,-34.32 v -328.54 c 0,-18.88 15.43,-34.32 34.32,-34.32 h 465.85 c 18.89,0 34.32,15.44 34.32,34.32 v 328.54 c 0,18.89 -15.43,34.32 -34.32,34.32" /><path
         id="path30"
         style="fill:#a2badf;fill-opacity:1;fill-rule:evenodd;stroke:none"
         d="m 2484.43,1652.65 h -465.85 c -18.88,0 -34.31,-15.43 -34.31,-34.32 v -328.54 c 0,-18.88 15.43,-34.32 34.31,-34.32 h 465.85 c 18.9,0 34.32,15.44 34.32,34.32 v 328.54 c 0,18.89 -15.42,34.32 -34.32,34.32" /><path
         id="path32"
         style="fill:#759dcf;fill-opacity:1;fill-rule:evenodd;stroke:none"
         d="m 2423.95,1521.47 h -344.89 c -10.77,0 -19.6,-8.82 -19.6,-19.6 v -95.62 c 0,-10.78 8.83,-19.61 19.6,-19.61 h 344.89 c 10.79,0 19.61,8.83 19.61,19.61 v 95.62 c 0,10.78 -8.82,19.6 -19.61,19.6" /><path
         id="path34"
         style="fill:#e0d9e2;fill-opacity:1;fill-rule:evenodd;stroke:none"
         d="m 2273.39,1498.59 h -169.61 c -2.35,0 -4.28,-1.91 -4.28,-4.27 v -20.87 c 0,-2.35 1.93,-4.27 4.28,-4.27 h 169.61 c 2.35,0 4.27,1.92 4.27,4.27 v 20.87 c 0,2.36 -1.92,4.27 -4.27,4.27" /><path
         id="path36"
         style="fill:#e0d9e2;fill-opacity:1;fill-rule:evenodd;stroke:none"
         d="m 2187.57,1452 h -83.79 c -2.35,0 -4.28,-1.91 -4.28,-4.27 v -20.86 c 0,-2.36 1.93,-4.28 4.28,-4.28 h 83.79 c 2.35,0 4.28,1.92 4.28,4.28 v 20.86 c 0,2.36 -1.93,4.27 -4.28,4.27" /><path
         id="path38"
         style="fill:#759dcf;fill-opacity:1;fill-rule:evenodd;stroke:none"
         d="m 2017.92,1255.47 h 558.23 c 22.63,0 41.14,-18.51 41.14,-41.13 V 820.629 c 0,-22.617 -18.51,-41.137 -41.14,-41.137 h -558.23 c -22.63,0 -41.13,18.52 -41.13,41.137 v 393.711 c 0,22.62 18.5,41.13 41.13,41.13" /><path
         id="path40"
         style="fill:#a2badf;fill-opacity:1;fill-rule:evenodd;stroke:none"
         d="m 1651.66,1255.47 h 558.23 c 22.62,0 41.13,-18.51 41.13,-41.13 V 820.629 c 0,-22.617 -18.51,-41.137 -41.13,-41.137 h -558.23 c -22.64,0 -41.14,18.52 -41.14,41.137 v 393.711 c 0,22.62 18.5,41.13 41.14,41.13" /><path
         id="path42"
         style="fill:#759dcf;fill-opacity:1;fill-rule:evenodd;stroke:none"
         d="m 1724.12,1098.26 h 413.29 c 12.92,0 23.49,-10.56 23.49,-23.48 V 960.191 c 0,-12.921 -10.57,-23.492 -23.49,-23.492 h -413.29 c -12.92,0 -23.49,10.571 -23.49,23.492 v 114.589 c 0,12.92 10.57,23.48 23.49,23.48" /><path
         id="path44"
         style="fill:#e0d9e2;fill-opacity:1;fill-rule:evenodd;stroke:none"
         d="m 1904.56,1070.86 h 203.23 c 2.82,0 5.12,-2.31 5.12,-5.13 v -25.01 c 0,-2.82 -2.3,-5.12 -5.12,-5.12 h -203.23 c -2.83,0 -5.13,2.3 -5.13,5.12 v 25.01 c 0,2.82 2.3,5.13 5.13,5.13" /><path
         id="path46"
         style="fill:#e0d9e2;fill-opacity:1;fill-rule:evenodd;stroke:none"
         d="m 2007.39,1015.03 h 100.4 c 2.83,0 5.13,-2.31 5.13,-5.13 v -25.009 c 0,-2.821 -2.3,-5.121 -5.13,-5.121 h -100.4 c -2.82,0 -5.12,2.3 -5.12,5.121 v 25.009 c 0,2.82 2.3,5.13 5.12,5.13" /><path
         id="path48"
         style="fill:#adbee3;fill-opacity:1;fill-rule:evenodd;stroke:none"
         d="m 4576.46,3524.98 c -9.7,-4.14 -19.11,-8.85 -28.16,-14.08 -9.24,-5.34 -18.1,-11.21 -26.53,-17.57 -8.45,-6.37 -16.54,-13.28 -24.19,-20.65 -0.3,-0.28 -0.66,-0.45 -1.06,-0.49 -0.4,-0.05 -0.81,0.02 -1.15,0.22 -22.42,12.94 -44.88,25.84 -67.26,38.84 -2.66,1.45 -5.53,2.32 -8.42,2.65 -2.99,0.34 -6,0.1 -8.85,-0.66 -2.94,-0.78 -5.75,-2.16 -8.23,-4.05 -2.39,-1.82 -4.46,-4.12 -6.03,-6.87 -16.25,-26.31 -31.69,-54.83 -47.22,-81.74 -1.59,-2.74 -2.55,-5.71 -2.93,-8.7 -0.4,-3.11 -0.18,-6.23 0.61,-9.16 0.78,-2.94 2.15,-5.75 4.05,-8.23 1.82,-2.39 4.12,-4.46 6.87,-6.03 21.44,-13.25 44.71,-25.82 66.64,-38.49 0.35,-0.19 0.61,-0.51 0.76,-0.87 0.16,-0.37 0.21,-0.78 0.11,-1.17 l -1.53,-6.22 0.08,-0.03 c -0.67,-3.02 -1.29,-6.09 -1.86,-9.2 -0.98,-5.34 -1.79,-10.59 -2.41,-15.74 -0.62,-5.1 -1.1,-10.37 -1.43,-15.79 -0.32,-5.44 -0.49,-10.76 -0.49,-15.95 0,-5.19 0.17,-10.51 0.49,-15.94 0.33,-5.43 0.81,-10.71 1.43,-15.81 0.62,-5.14 1.44,-10.39 2.41,-15.72 0.97,-5.3 2.1,-10.46 3.32,-15.46 0.11,-0.42 0.06,-0.85 -0.12,-1.21 -0.19,-0.41 -0.48,-0.73 -0.82,-0.9 -24.49,-13.08 -49.36,-28.47 -73.57,-42.46 l 0.86,-1.07 -0.75,-0.93 c -1.89,-2.48 -3.26,-5.29 -4.04,-8.23 -0.79,-2.93 -1.01,-6.05 -0.61,-9.16 0.38,-2.99 1.34,-5.95 2.93,-8.69 l 50.74,-87.88 0.93,0.56 c 0.51,-0.45 1.04,-0.89 1.58,-1.3 2.48,-1.89 5.29,-3.27 8.23,-4.05 2.92,-0.78 6.03,-1 9.13,-0.61 2.92,0.37 5.8,1.3 8.47,2.79 22.18,11.77 45.05,26.01 66.96,38.67 0.32,0.17 0.72,0.23 1.11,0.19 0.41,-0.05 0.8,-0.23 1.1,-0.5 7.64,-7.38 15.72,-14.27 24.17,-20.64 8.42,-6.35 17.28,-12.22 26.5,-17.55 9.12,-5.27 18.59,-10 28.36,-14.15 9.71,-4.13 19.69,-7.67 29.87,-10.6 0.4,-0.12 0.75,-0.36 0.98,-0.66 0.25,-0.34 0.4,-0.74 0.37,-1.13 v -76.95 c 0,-3.15 0.65,-6.18 1.8,-8.96 1.21,-2.9 2.96,-5.49 5.12,-7.63 2.17,-2.16 4.75,-3.91 7.61,-5.1 2.78,-1.16 5.8,-1.8 8.96,-1.8 h 94.44 c 3.15,0 6.17,0.64 8.96,1.8 2.85,1.19 5.44,2.94 7.62,5.1 2.14,2.14 3.89,4.73 5.1,7.63 1.15,2.78 1.8,5.81 1.8,8.96 v 76.95 c 0,0.47 0.13,0.87 0.37,1.17 0.24,0.3 0.61,0.54 1.04,0.64 l 0.31,0.11 c 10.25,2.96 20.15,6.48 29.67,10.54 9.7,4.13 19.12,8.84 28.18,14.07 9.23,5.34 18.08,11.21 26.51,17.57 8.46,6.37 16.54,13.28 24.2,20.66 0.31,0.31 0.71,0.48 1.09,0.51 0.41,0.04 0.83,-0.07 1.21,-0.3 l 66.64,-38.47 c 2.73,-1.58 5.68,-2.54 8.66,-2.92 3.08,-0.4 6.2,-0.17 9.14,0.61 2.94,0.78 5.75,2.16 8.24,4.05 2.32,1.77 4.35,4.02 5.92,6.67 17.51,28.15 34.05,59 50.75,87.91 l -0.9,0.54 c 0.18,0.73 0.31,1.47 0.4,2.21 0.39,3.1 0.18,6.21 -0.6,9.14 -0.79,2.94 -2.16,5.76 -4.07,8.23 -1.81,2.39 -4.12,4.46 -6.84,6.03 l -66.67,38.48 c -0.34,0.2 -0.6,0.52 -0.75,0.87 -0.16,0.38 -0.21,0.81 -0.11,1.21 l 1.73,7.05 -0.1,0.02 c 0.6,2.74 1.15,5.53 1.68,8.35 0.98,5.33 1.79,10.59 2.41,15.74 0.63,5.1 1.11,10.38 1.43,15.81 0.33,5.43 0.5,10.75 0.5,15.94 0,5.18 -0.17,10.5 -0.5,15.94 -0.32,5.42 -0.8,10.7 -1.43,15.84 -0.62,5.1 -1.42,10.34 -2.41,15.72 -0.98,5.28 -2.09,10.44 -3.32,15.42 -0.1,0.41 -0.04,0.83 0.13,1.25 0.17,0.36 0.48,0.67 0.85,0.86 l 66.57,38.44 c 2.75,1.59 5.05,3.65 6.84,6.04 1.9,2.49 3.28,5.3 4.06,8.21 0.78,2.92 0.99,6.04 0.6,9.14 -0.38,2.91 -1.31,5.79 -2.81,8.49 -15.87,29.39 -34.06,59.02 -50.85,88.09 l -0.95,-0.56 c -0.5,0.46 -1.03,0.89 -1.56,1.31 -2.49,1.89 -5.3,3.27 -8.24,4.05 -2.92,0.78 -6.04,1 -9.13,0.61 -3.02,-0.38 -5.96,-1.33 -8.66,-2.88 l -4.94,-2.83 0.02,-0.05 -61.82,-35.68 c -0.38,-0.22 -0.79,-0.29 -1.19,-0.24 -0.39,0.06 -0.78,0.24 -1.06,0.53 l -0.15,0.16 c -7.58,7.29 -15.64,14.16 -24.15,20.56 -8.45,6.37 -17.26,12.21 -26.38,17.48 -9.11,5.26 -18.58,10 -28.34,14.15 -9.71,4.12 -19.69,7.67 -29.88,10.59 -0.4,0.11 -0.74,0.36 -0.96,0.66 -0.27,0.34 -0.41,0.74 -0.38,1.13 v 76.96 c 0,3.14 -0.65,6.18 -1.8,8.95 -1.21,2.89 -2.96,5.49 -5.13,7.63 -2.16,2.16 -4.74,3.9 -7.59,5.1 -2.79,1.16 -5.81,1.8 -8.96,1.8 h -94.44 c -3.16,0 -6.18,-0.64 -8.96,-1.8 -2.86,-1.2 -5.44,-2.94 -7.63,-5.1 -4.25,-4.25 -6.9,-10.13 -6.9,-16.58 v -76.96 c 0,-0.45 -0.15,-0.85 -0.38,-1.18 -0.24,-0.3 -0.62,-0.53 -1.03,-0.63 l -0.31,-0.11 c -10.25,-2.96 -20.16,-6.49 -29.68,-10.53 z m 33.2,-2.92 c -9.42,-2.71 -18.69,-6.03 -27.75,-9.89 -9.2,-3.91 -18.09,-8.37 -26.65,-13.31 -8.69,-5.03 -17.08,-10.59 -25.1,-16.64 -8.06,-6.08 -15.73,-12.62 -22.93,-19.57 -2.56,-2.46 -5.75,-3.9 -9.02,-4.3 -3.34,-0.41 -6.8,0.28 -9.81,2.02 -22.11,12.76 -45.35,25.4 -67.01,38.69 -1.05,0.55 -2.15,0.89 -3.26,1.01 -1.25,0.13 -2.5,0.04 -3.69,-0.28 -1.23,-0.33 -2.39,-0.89 -3.4,-1.66 -0.95,-0.73 -1.79,-1.67 -2.43,-2.77 -16.12,-24.39 -32.29,-55.9 -47.22,-81.76 -0.64,-1.1 -1.02,-2.29 -1.18,-3.47 -0.16,-1.24 -0.05,-2.55 0.29,-3.81 0.32,-1.22 0.88,-2.38 1.65,-3.39 0.72,-0.96 1.67,-1.8 2.77,-2.44 19.89,-13.15 45.52,-26.31 66.59,-38.48 3.11,-1.78 5.36,-4.43 6.65,-7.45 0.46,-1.06 0.79,-2.16 1,-3.29 l 1.38,-0.46 -1.55,-6.21 c -1.21,-4.89 -2.26,-9.78 -3.16,-14.63 -0.86,-4.74 -1.62,-9.69 -2.25,-14.86 -0.61,-5.04 -1.07,-10.04 -1.36,-14.97 -0.3,-4.82 -0.44,-9.88 -0.44,-15.14 0,-5.26 0.14,-10.31 0.44,-15.13 0.29,-4.94 0.75,-9.95 1.36,-14.99 0.63,-5.16 1.39,-10.11 2.25,-14.84 0.9,-4.87 1.96,-9.76 3.16,-14.65 0.9,-3.62 0.46,-7.26 -0.99,-10.39 -1.44,-3.13 -3.93,-5.75 -7.12,-7.39 l -58.99,-34.06 0.02,-0.02 -6.99,-4.03 c -1.11,-0.64 -2.05,-1.49 -2.78,-2.44 -0.75,-1.01 -1.32,-2.16 -1.64,-3.39 -0.34,-1.27 -0.45,-2.57 -0.29,-3.81 0.16,-1.18 0.54,-2.36 1.18,-3.47 l 43.66,-75.66 0.03,0.01 3.53,-6.11 c 0.64,-1.1 1.48,-2.04 2.43,-2.77 1.01,-0.77 2.17,-1.33 3.4,-1.65 1.25,-0.34 2.55,-0.44 3.78,-0.28 1.17,0.15 2.36,0.54 3.46,1.17 21.12,13.27 44.96,25.95 66.75,38.52 3.11,1.77 6.52,2.39 9.75,2 3.35,-0.4 6.53,-1.87 9.02,-4.26 l 0.03,-0.02 c 7.2,-6.96 14.88,-13.5 22.94,-19.58 8.02,-6.04 16.4,-11.6 25.09,-16.62 8.61,-4.98 17.57,-9.46 26.84,-13.4 9.08,-3.86 18.51,-7.2 28.23,-9.99 3.42,-0.98 6.27,-3.02 8.27,-5.67 2.01,-2.68 3.18,-6.03 3.18,-9.52 l 0.03,-76.95 c 0,-1.3 0.25,-2.53 0.71,-3.62 0.48,-1.15 1.2,-2.21 2.1,-3.11 0.88,-0.89 1.94,-1.61 3.1,-2.1 1.11,-0.46 2.33,-0.72 3.63,-0.72 h 94.44 c 1.29,0 2.51,0.26 3.61,0.72 1.17,0.49 2.23,1.21 3.12,2.09 0.89,0.91 1.61,1.97 2.09,3.12 0.46,1.09 0.71,2.32 0.71,3.62 v 76.95 c 0,3.67 1.28,7.06 3.43,9.77 2.17,2.76 5.23,4.78 8.72,5.61 9.42,2.7 18.68,6.02 27.74,9.88 9.19,3.91 18.1,8.37 26.65,13.31 8.7,5.03 17.08,10.59 25.1,16.64 8.07,6.07 15.74,12.62 22.94,19.57 2.68,2.57 6.04,4.01 9.49,4.33 3.5,0.32 7.1,-0.54 10.13,-2.54 l 65.88,-38.04 c 1.09,-0.63 2.29,-1.02 3.5,-1.16 1.23,-0.16 2.53,-0.06 3.79,0.28 1.24,0.32 2.39,0.88 3.39,1.65 0.96,0.73 1.79,1.66 2.44,2.77 15.65,27.3 31.55,54.48 47.22,81.77 0.64,1.1 1.02,2.29 1.17,3.48 0.16,1.24 0.06,2.53 -0.28,3.79 -0.33,1.24 -0.89,2.4 -1.64,3.39 -0.72,0.98 -1.65,1.81 -2.72,2.44 l -66.66,38.48 c -3.09,1.77 -5.36,4.43 -6.65,7.45 -0.35,0.82 -0.63,1.67 -0.84,2.54 l -1.73,0.35 1.74,7.07 c 1.22,4.88 2.27,9.77 3.17,14.63 0.87,4.74 1.62,9.69 2.25,14.86 0.61,5.04 1.07,10.04 1.37,14.99 0.29,4.82 0.44,9.87 0.44,15.13 0,5.25 -0.15,10.3 -0.44,15.12 -0.3,4.93 -0.76,9.93 -1.37,14.97 -0.64,5.23 -1.39,10.2 -2.25,14.91 -0.9,4.84 -1.95,9.72 -3.17,14.6 -0.89,3.64 -0.44,7.29 1.01,10.41 1.47,3.12 3.93,5.75 7.09,7.37 l 66.02,38.11 c 1.08,0.61 2,1.45 2.74,2.43 0.75,0.97 1.31,2.14 1.64,3.4 0.34,1.26 0.44,2.55 0.28,3.79 -0.15,1.19 -0.53,2.39 -1.17,3.48 -16.12,23.97 -32.26,55.99 -47.22,81.77 -0.65,1.1 -1.48,2.04 -2.44,2.77 -1,0.76 -2.15,1.33 -3.39,1.66 -1.25,0.33 -2.55,0.43 -3.79,0.28 -1.17,-0.15 -2.36,-0.54 -3.48,-1.19 l -66.7,-38.5 c -3.13,-1.84 -6.66,-2.45 -10,-2 -3.35,0.47 -6.54,2 -9.01,4.46 -7.25,6.97 -14.89,13.48 -22.84,19.47 -7.92,5.97 -16.28,11.5 -25.01,16.55 -8.6,4.97 -17.57,9.45 -26.83,13.38 -9.08,3.87 -18.52,7.22 -28.22,10 -3.43,0.98 -6.27,3.02 -8.28,5.67 -2.03,2.68 -3.18,6.02 -3.18,9.52 l -0.03,76.96 c 0,1.29 -0.25,2.52 -0.7,3.62 -0.48,1.14 -1.2,2.2 -2.11,3.1 -0.88,0.9 -1.94,1.61 -3.11,2.1 -1.1,0.46 -2.32,0.71 -3.61,0.71 h -94.44 c -1.3,0 -2.52,-0.25 -3.63,-0.71 -1.16,-0.49 -2.22,-1.2 -3.11,-2.09 -1.72,-1.75 -2.8,-4.13 -2.8,-6.73 v -76.96 c 0,-3.69 -1.27,-7.08 -3.39,-9.77 -2.21,-2.76 -5.28,-4.78 -8.76,-5.6 z m 16.64,-110.78 c -16.67,-6.91 -31.71,-17.07 -44.33,-29.69 -12.62,-12.63 -22.78,-27.66 -29.69,-44.33 -6.65,-16.07 -10.32,-33.72 -10.32,-52.26 0,-18.55 3.67,-36.2 10.32,-52.27 6.91,-16.67 17.07,-31.7 29.69,-44.33 12.62,-12.62 27.66,-22.78 44.33,-29.68 16.06,-6.66 33.72,-10.33 52.26,-10.33 18.53,0 36.18,3.67 52.24,10.33 16.7,6.9 31.74,17.06 44.37,29.68 12.61,12.63 22.77,27.66 29.67,44.33 6.65,16.07 10.33,33.72 10.33,52.27 0,18.54 -3.68,36.19 -10.33,52.26 -6.9,16.67 -17.06,31.7 -29.67,44.33 -12.63,12.62 -27.67,22.78 -44.34,29.68 -16.06,6.66 -33.72,10.34 -52.27,10.34 -18.54,0 -36.2,-3.68 -52.26,-10.33 z m -54.19,-19.83 c 13.85,13.85 30.43,25.03 48.91,32.69 17.76,7.35 37.19,11.41 57.54,11.41 20.36,0 39.79,-4.06 57.55,-11.42 18.47,-7.65 35.07,-18.83 48.91,-32.68 13.85,-13.84 25.04,-30.44 32.68,-48.91 7.36,-17.76 11.42,-37.2 11.42,-57.54 0,-20.35 -4.06,-39.79 -11.42,-57.55 -7.65,-18.48 -18.83,-35.07 -32.68,-48.91 -13.84,-13.85 -30.42,-25.03 -48.89,-32.67 -17.75,-7.37 -37.2,-11.43 -57.57,-11.43 -20.35,0 -39.78,4.07 -57.54,11.42 -18.47,7.65 -35.07,18.83 -48.91,32.68 -13.85,13.84 -25.04,30.43 -32.69,48.91 -7.35,17.76 -11.41,37.19 -11.41,57.55 0,20.34 4.06,39.79 11.41,57.54 7.65,18.47 18.84,35.07 32.69,48.91 v 0" /><path
         id="path50"
         style="fill:#adbee3;fill-opacity:1;fill-rule:evenodd;stroke:none"
         d="m 674.648,2770.15 c -9.703,-4.14 -19.113,-8.85 -28.164,-14.08 -9.226,-5.34 -18.093,-11.22 -26.523,-17.57 -8.453,-6.37 -16.539,-13.28 -24.191,-20.65 -0.286,-0.28 -0.653,-0.45 -1.051,-0.5 -0.403,-0.04 -0.817,0.03 -1.156,0.23 -22.418,12.94 -44.879,25.84 -67.262,38.85 -2.668,1.44 -5.531,2.31 -8.418,2.64 -2.985,0.34 -5.996,0.11 -8.852,-0.66 -2.941,-0.79 -5.754,-2.16 -8.23,-4.05 -2.383,-1.82 -4.457,-4.13 -6.035,-6.86 -16.25,-26.32 -31.68,-54.84 -47.223,-81.75 -1.582,-2.74 -2.543,-5.71 -2.926,-8.7 -0.394,-3.11 -0.176,-6.23 0.613,-9.15 0.786,-2.95 2.157,-5.76 4.051,-8.24 1.817,-2.38 4.121,-4.45 6.867,-6.03 21.446,-13.24 44.711,-25.82 66.649,-38.49 0.344,-0.19 0.605,-0.51 0.758,-0.87 0.156,-0.36 0.199,-0.78 0.101,-1.17 l -1.539,-6.22 0.094,-0.03 c -0.668,-3.02 -1.281,-6.09 -1.859,-9.21 -0.977,-5.33 -1.789,-10.58 -2.407,-15.73 -0.625,-5.1 -1.105,-10.37 -1.429,-15.79 -0.328,-5.44 -0.496,-10.76 -0.496,-15.95 0,-5.18 0.168,-10.51 0.496,-15.94 0.324,-5.43 0.804,-10.7 1.429,-15.81 0.618,-5.14 1.434,-10.39 2.407,-15.72 0.976,-5.3 2.093,-10.45 3.324,-15.46 0.101,-0.41 0.054,-0.84 -0.125,-1.21 -0.188,-0.41 -0.477,-0.73 -0.821,-0.89 -24.492,-13.09 -49.363,-28.47 -73.574,-42.46 l 0.864,-1.09 -0.743,-0.93 c -1.89,-2.47 -3.261,-5.28 -4.047,-8.23 -0.789,-2.92 -1.007,-6.04 -0.613,-9.15 0.383,-3 1.344,-5.96 2.938,-8.69 l 50.738,-87.88 0.934,0.57 c 0.507,-0.46 1.031,-0.9 1.574,-1.31 2.476,-1.89 5.289,-3.26 8.23,-4.05 2.922,-0.79 6.035,-1 9.133,-0.6 2.914,0.36 5.789,1.29 8.461,2.77 22.199,11.79 45.051,26.02 66.969,38.67 0.324,0.18 0.719,0.25 1.113,0.2 0.41,-0.05 0.801,-0.23 1.094,-0.5 7.644,-7.37 15.726,-14.28 24.172,-20.64 8.425,-6.35 17.285,-12.22 26.507,-17.55 9.11,-5.27 18.586,-10.01 28.356,-14.16 9.707,-4.12 19.68,-7.67 29.871,-10.59 0.406,-0.12 0.742,-0.35 0.973,-0.65 0.254,-0.34 0.398,-0.75 0.375,-1.14 v -76.96 c 0,-3.14 0.64,-6.18 1.797,-8.95 1.207,-2.89 2.953,-5.48 5.125,-7.63 2.164,-2.16 4.75,-3.91 7.605,-5.1 2.777,-1.16 5.809,-1.8 8.953,-1.8 h 94.445 c 3.137,0 6.176,0.64 8.954,1.8 2.859,1.19 5.441,2.94 7.629,5.1 2.148,2.15 3.894,4.74 5.097,7.63 1.16,2.77 1.801,5.81 1.801,8.95 v 76.96 c 0,0.46 0.137,0.87 0.371,1.17 0.238,0.3 0.613,0.54 1.047,0.64 l 0.301,0.11 c 10.25,2.96 20.156,6.48 29.672,10.54 9.707,4.14 19.117,8.83 28.179,14.08 9.231,5.33 18.086,11.2 26.516,17.55 8.449,6.37 16.543,13.29 24.195,20.67 0.317,0.3 0.711,0.48 1.098,0.52 0.402,0.03 0.828,-0.07 1.187,-0.3 l 66.653,-38.49 c 2.74,-1.57 5.68,-2.53 8.66,-2.91 3.09,-0.39 6.21,-0.17 9.14,0.61 2.95,0.79 5.76,2.16 8.23,4.05 2.33,1.77 4.36,4.02 5.93,6.67 17.51,28.16 34.06,58.99 50.75,87.91 l -0.89,0.53 c 0.17,0.75 0.29,1.48 0.39,2.23 0.39,3.1 0.18,6.2 -0.61,9.13 -0.78,2.94 -2.15,5.76 -4.05,8.22 -1.82,2.41 -4.12,4.47 -6.85,6.04 l -66.67,38.49 c -0.34,0.19 -0.6,0.5 -0.75,0.86 -0.16,0.38 -0.2,0.82 -0.11,1.21 l 1.73,7.04 -0.1,0.03 c 0.6,2.74 1.16,5.52 1.68,8.36 0.98,5.32 1.79,10.58 2.41,15.72 0.63,5.12 1.1,10.39 1.43,15.82 0.33,5.43 0.5,10.76 0.5,15.94 0,5.18 -0.17,10.5 -0.5,15.94 -0.33,5.42 -0.8,10.7 -1.43,15.84 -0.62,5.1 -1.42,10.34 -2.41,15.72 -0.97,5.28 -2.09,10.44 -3.32,15.42 -0.1,0.41 -0.04,0.84 0.13,1.24 0.17,0.37 0.47,0.68 0.85,0.87 l 66.58,38.44 c 2.75,1.59 5.05,3.65 6.84,6.04 1.89,2.49 3.26,5.3 4.04,8.22 0.79,2.92 1,6.03 0.61,9.13 -0.37,2.91 -1.3,5.8 -2.81,8.49 -15.87,29.39 -34.06,59.02 -50.85,88.09 l -0.94,-0.56 c -0.51,0.46 -1.03,0.9 -1.58,1.31 -2.47,1.89 -5.28,3.26 -8.23,4.05 -2.93,0.78 -6.04,1 -9.13,0.61 -3.01,-0.38 -5.96,-1.32 -8.66,-2.88 l -4.93,-2.83 0.02,-0.05 -61.835,-35.68 c -0.371,-0.22 -0.789,-0.29 -1.179,-0.24 -0.403,0.06 -0.778,0.24 -1.063,0.53 l -0.16,0.16 c -7.566,7.29 -15.633,14.16 -24.141,20.56 -8.453,6.37 -17.265,12.21 -26.382,17.48 -9.106,5.26 -18.579,10 -28.336,14.15 -9.707,4.12 -19.692,7.67 -29.875,10.59 -0.403,0.12 -0.743,0.36 -0.965,0.66 -0.262,0.34 -0.41,0.74 -0.383,1.12 v 76.97 c 0,3.15 -0.641,6.18 -1.797,8.96 -1.207,2.88 -2.953,5.47 -5.133,7.62 -2.156,2.16 -4.738,3.91 -7.597,5.1 -2.778,1.16 -5.817,1.8 -8.954,1.8 h -94.445 c -3.144,0 -6.176,-0.64 -8.953,-1.8 -2.855,-1.19 -5.441,-2.94 -7.633,-5.1 -4.254,-4.26 -6.894,-10.12 -6.894,-16.58 v -76.97 c 0,-0.44 -0.153,-0.85 -0.379,-1.17 -0.246,-0.3 -0.613,-0.53 -1.035,-0.63 l -0.305,-0.11 c -10.254,-2.96 -20.164,-6.49 -29.688,-10.53 z m 33.204,-2.92 c -9.422,-2.72 -18.692,-6.04 -27.75,-9.89 -9.188,-3.91 -18.09,-8.37 -26.645,-13.31 -8.695,-5.03 -17.078,-10.59 -25.105,-16.64 -8.071,-6.08 -15.731,-12.61 -22.938,-19.57 -2.555,-2.46 -5.734,-3.9 -9.008,-4.29 -3.34,-0.41 -6.804,0.27 -9.812,2.01 -22.106,12.76 -45.356,25.39 -67.016,38.69 -1.043,0.56 -2.144,0.88 -3.25,1.01 -1.25,0.14 -2.504,0.04 -3.695,-0.28 -1.227,-0.33 -2.391,-0.89 -3.391,-1.65 -0.961,-0.74 -1.801,-1.67 -2.441,-2.78 -16.117,-24.39 -32.289,-55.9 -47.223,-81.76 -0.633,-1.11 -1.023,-2.29 -1.176,-3.47 -0.156,-1.24 -0.05,-2.55 0.286,-3.81 0.328,-1.23 0.882,-2.38 1.648,-3.38 0.734,-0.97 1.672,-1.8 2.785,-2.45 19.887,-13.15 45.508,-26.3 66.598,-38.48 3.09,-1.77 5.347,-4.43 6.636,-7.46 0.454,-1.05 0.79,-2.15 0.993,-3.27 l 1.375,-0.47 -1.539,-6.21 c -1.207,-4.89 -2.266,-9.77 -3.161,-14.63 -0.863,-4.73 -1.621,-9.69 -2.246,-14.86 -0.609,-5.04 -1.078,-10.04 -1.371,-14.97 -0.289,-4.83 -0.441,-9.88 -0.441,-15.14 0,-5.27 0.152,-10.31 0.441,-15.13 0.293,-4.94 0.762,-9.94 1.371,-14.99 0.625,-5.16 1.383,-10.11 2.25,-14.84 0.891,-4.87 1.953,-9.76 3.164,-14.64 0.895,-3.63 0.45,-7.27 -1,-10.39 -1.445,-3.14 -3.925,-5.76 -7.128,-7.41 l -58.981,-34.05 0.023,-0.02 -6.984,-4.03 c -1.117,-0.65 -2.051,-1.49 -2.789,-2.44 -0.758,-1 -1.316,-2.16 -1.644,-3.39 -0.336,-1.26 -0.442,-2.57 -0.286,-3.81 0.153,-1.18 0.543,-2.36 1.176,-3.48 l 43.668,-75.64 0.02,0.01 3.535,-6.12 c 0.64,-1.1 1.48,-2.04 2.441,-2.77 1,-0.77 2.164,-1.33 3.391,-1.66 1.25,-0.33 2.547,-0.43 3.785,-0.27 1.176,0.15 2.352,0.53 3.453,1.18 21.125,13.27 44.965,25.94 66.754,38.51 3.117,1.77 6.52,2.4 9.746,2.01 3.352,-0.41 6.524,-1.88 9.02,-4.26 l 0.023,-0.03 c 7.215,-6.95 14.883,-13.5 22.949,-19.58 8.02,-6.05 16.403,-11.6 25.09,-16.62 8.606,-4.98 17.57,-9.45 26.828,-13.4 9.09,-3.86 18.528,-7.21 28.239,-9.99 3.421,-0.98 6.269,-3.02 8.265,-5.66 2.024,-2.69 3.18,-6.03 3.188,-9.53 L 720,2200.77 c 0,-1.29 0.254,-2.52 0.715,-3.61 0.473,-1.14 1.199,-2.21 2.098,-3.11 0.875,-0.9 1.945,-1.61 3.105,-2.11 1.102,-0.45 2.324,-0.7 3.617,-0.7 h 94.445 c 1.293,0 2.512,0.25 3.618,0.7 1.164,0.5 2.226,1.21 3.117,2.09 0.887,0.92 1.609,1.99 2.09,3.13 0.457,1.09 0.711,2.32 0.711,3.61 v 76.96 c 0,3.67 1.281,7.06 3.422,9.77 2.171,2.76 5.234,4.78 8.726,5.61 9.418,2.71 18.684,6.02 27.738,9.88 9.196,3.91 18.102,8.37 26.657,13.32 8.691,5.02 17.07,10.57 25.093,16.62 8.071,6.08 15.739,12.63 22.946,19.58 2.668,2.57 6.039,4.01 9.484,4.33 3.508,0.31 7.102,-0.53 10.133,-2.53 l 65.885,-38.05 c 1.09,-0.63 2.28,-1.02 3.48,-1.16 1.25,-0.16 2.54,-0.06 3.8,0.27 1.23,0.33 2.39,0.89 3.39,1.66 0.95,0.73 1.8,1.66 2.44,2.77 15.65,27.3 31.55,54.48 47.22,81.77 0.63,1.1 1.02,2.29 1.18,3.49 0.15,1.23 0.05,2.52 -0.29,3.78 -0.32,1.24 -0.88,2.41 -1.64,3.4 -0.72,0.97 -1.64,1.8 -2.72,2.43 l -66.66,38.48 c -3.09,1.77 -5.35,4.43 -6.64,7.46 -0.36,0.82 -0.64,1.67 -0.84,2.53 l -1.74,0.36 1.75,7.06 c 1.2,4.88 2.26,9.77 3.16,14.64 0.87,4.72 1.62,9.69 2.25,14.85 0.61,5.04 1.08,10.05 1.37,14.99 0.29,4.82 0.44,9.86 0.44,15.13 0,5.25 -0.15,10.3 -0.44,15.12 -0.29,4.94 -0.76,9.93 -1.37,14.97 -0.64,5.23 -1.39,10.2 -2.25,14.91 -0.9,4.84 -1.95,9.72 -3.16,14.6 -0.9,3.64 -0.46,7.29 1,10.42 1.46,3.11 3.93,5.74 7.09,7.36 l 66.01,38.11 c 1.09,0.62 2.01,1.45 2.75,2.44 0.75,0.96 1.31,2.13 1.64,3.39 0.34,1.26 0.44,2.55 0.29,3.79 -0.16,1.19 -0.55,2.38 -1.18,3.48 -16.12,23.97 -32.26,55.99 -47.22,81.77 -0.64,1.11 -1.49,2.04 -2.44,2.78 -1,0.76 -2.16,1.32 -3.39,1.65 -1.26,0.33 -2.55,0.43 -3.79,0.28 -1.16,-0.14 -2.35,-0.54 -3.49,-1.19 l -66.69,-38.5 c -3.137,-1.83 -6.66,-2.44 -9.996,-1.99 -3.355,0.46 -6.543,1.99 -9.016,4.44 -7.246,6.98 -14.875,13.49 -22.832,19.48 -7.921,5.97 -16.281,11.5 -25.011,16.55 -8.61,4.97 -17.571,9.45 -26.828,13.38 -9.09,3.87 -18.52,7.21 -28.231,10 -3.426,0.98 -6.269,3.02 -8.266,5.67 -2.027,2.68 -3.183,6.02 -3.183,9.51 l -0.031,76.97 c 0,1.29 -0.254,2.52 -0.711,3.62 -0.477,1.14 -1.203,2.19 -2.102,3.1 -0.879,0.9 -1.941,1.61 -3.105,2.1 -1.106,0.46 -2.325,0.71 -3.618,0.71 h -94.445 c -1.293,0 -2.515,-0.25 -3.617,-0.71 -1.16,-0.48 -2.23,-1.2 -3.121,-2.09 -1.719,-1.74 -2.797,-4.13 -2.797,-6.73 v -76.97 c 0,-3.67 -1.273,-7.07 -3.395,-9.77 -2.207,-2.75 -5.265,-4.77 -8.753,-5.59 z m 16.64,-110.78 c -16.672,-6.91 -31.703,-17.07 -44.332,-29.69 -12.621,-12.62 -22.777,-27.67 -29.683,-44.33 -6.661,-16.07 -10.332,-33.72 -10.332,-52.26 0,-18.55 3.671,-36.21 10.332,-52.28 6.906,-16.66 17.062,-31.69 29.683,-44.32 12.621,-12.62 27.668,-22.78 44.332,-29.68 16.071,-6.66 33.723,-10.34 52.266,-10.34 18.531,0 36.172,3.68 52.234,10.34 16.696,6.89 31.735,17.06 44.363,29.68 12.622,12.63 22.778,27.66 29.68,44.33 6.653,16.06 10.328,33.72 10.328,52.27 0,18.54 -3.675,36.19 -10.328,52.26 -6.902,16.66 -17.058,31.71 -29.68,44.33 -12.628,12.62 -27.667,22.78 -44.332,29.69 -16.07,6.66 -33.718,10.33 -52.265,10.33 -18.543,0 -36.195,-3.67 -52.266,-10.33 z m -54.195,-19.82 c 13.851,13.84 30.441,25.03 48.906,32.67 17.766,7.36 37.203,11.43 57.555,11.43 20.347,0 39.789,-4.07 57.551,-11.43 18.464,-7.64 35.054,-18.83 48.91,-32.67 13.847,-13.86 25.027,-30.45 32.676,-48.92 7.359,-17.76 11.414,-37.2 11.414,-57.54 0,-20.35 -4.055,-39.79 -11.414,-57.55 -7.649,-18.47 -18.829,-35.06 -32.676,-48.91 -13.848,-13.85 -30.43,-25.03 -48.895,-32.67 -17.754,-7.37 -37.207,-11.43 -57.566,-11.43 -20.352,0 -39.789,4.06 -57.547,11.42 -18.469,7.65 -35.066,18.83 -48.914,32.68 -13.848,13.85 -25.027,30.44 -32.676,48.9 -7.355,17.76 -11.422,37.2 -11.422,57.56 0,20.34 4.067,39.78 11.422,57.54 7.649,18.47 18.828,35.06 32.676,48.92 v 0" /><path
         id="path52"
         style="fill:#adbee3;fill-opacity:1;fill-rule:evenodd;stroke:none"
         d="m 1303.25,2381.69 c -8.86,-2.56 -17.25,-6.16 -25.05,-10.66 -7.99,-4.63 -15.37,-10.2 -21.97,-16.57 -1.29,-1.24 -3.21,-1.42 -4.68,-0.56 l -29.7,17.14 -0.16,0.1 c -1.7,0.92 -3.64,1.09 -5.41,0.62 -1.83,-0.49 -3.47,-1.67 -4.48,-3.42 l -0.12,-0.21 -20.89,-36.18 c -1.01,-1.74 -1.21,-3.76 -0.71,-5.59 0.48,-1.83 1.66,-3.46 3.41,-4.48 l 0.2,-0.11 29.45,-17 c 1.55,-0.9 2.26,-2.69 1.86,-4.33 v 0 c -1.08,-4.39 -1.92,-8.9 -2.48,-13.51 -0.55,-4.5 -0.83,-9.09 -0.83,-13.77 0,-4.67 0.28,-9.26 0.83,-13.76 0.56,-4.61 1.4,-9.12 2.48,-13.5 0.45,-1.83 -0.45,-3.66 -2.07,-4.45 l -29.44,-17 v -0.01 c -1.75,-1.01 -2.93,-2.64 -3.41,-4.48 -0.5,-1.83 -0.3,-3.84 0.71,-5.59 l 21.01,-36.38 v 0 c 1.01,-1.74 2.65,-2.92 4.48,-3.41 1.83,-0.49 3.83,-0.29 5.57,0.71 l 0.23,0.12 29.48,17.03 c 1.55,0.88 3.44,0.6 4.67,-0.57 6.6,-6.36 13.98,-11.94 21.97,-16.57 7.84,-4.53 16.29,-8.14 25.21,-10.71 1.73,-0.49 2.85,-2.06 2.85,-3.77 v -34.25 c 0,-2.02 0.83,-3.86 2.16,-5.18 1.34,-1.34 3.18,-2.17 5.19,-2.17 h 42.03 c 2.02,0 3.86,0.83 5.19,2.17 1.33,1.32 2.16,3.16 2.16,5.18 v 34.25 c 0,1.86 1.29,3.41 3.02,3.82 8.85,2.56 17.25,6.16 25.04,10.66 8,4.63 15.38,10.21 21.98,16.57 1.35,1.29 3.38,1.43 4.88,0.44 l 29.49,-17.02 c 1.74,-1 3.75,-1.2 5.58,-0.71 1.82,0.49 3.47,1.67 4.47,3.41 l 0.13,0.2 20.89,36.2 v 0 c 1,1.74 1.2,3.75 0.71,5.58 -0.49,1.83 -1.67,3.47 -3.4,4.47 l -29.67,17.13 c -1.54,0.89 -2.25,2.68 -1.85,4.33 v 0 c 1.08,4.38 1.92,8.89 2.48,13.5 0.55,4.5 0.83,9.09 0.83,13.76 0,4.68 -0.28,9.28 -0.83,13.77 -0.56,4.61 -1.4,9.12 -2.48,13.51 -0.45,1.82 0.45,3.65 2.07,4.44 l 29.45,17 c 1.73,1.01 2.91,2.65 3.4,4.48 0.49,1.82 0.29,3.84 -0.71,5.58 l -0.12,0.22 -20.89,36.18 h -0.01 c -1,1.75 -2.65,2.93 -4.47,3.42 -1.83,0.49 -3.84,0.29 -5.58,-0.72 v 0 l -29.69,-17.14 c -1.59,-0.92 -3.54,-0.61 -4.77,0.65 -6.58,6.33 -13.93,11.88 -21.89,16.48 -7.84,4.53 -16.29,8.15 -25.2,10.71 -1.73,0.49 -2.86,2.06 -2.86,3.77 v 34.25 c 0,2.02 -0.83,3.85 -2.16,5.19 -1.33,1.33 -3.17,2.16 -5.19,2.16 h -42.03 c -2.01,0 -3.85,-0.83 -5.19,-2.16 -1.33,-1.34 -2.16,-3.17 -2.16,-5.19 v -34.25 c 0,-1.86 -1.28,-3.41 -3.01,-3.82 z m -13.81,-63.34 c 11.57,11.56 27.54,18.72 45.19,18.72 17.64,0 33.62,-7.16 45.18,-18.72 11.57,-11.56 18.72,-27.54 18.72,-45.19 0,-17.63 -7.15,-33.62 -18.72,-45.18 -11.56,-11.56 -27.53,-18.71 -45.18,-18.71 -17.65,0 -33.62,7.15 -45.19,18.71 -11.56,11.56 -18.71,27.55 -18.71,45.18 0,17.65 7.15,33.63 18.71,45.19 z m -33.21,-126.48 v 0 0" /><path
         id="path54"
         style="fill:#adbee3;fill-opacity:1;fill-rule:evenodd;stroke:none"
         d="m 2630.32,3261.17 c 0,6.05 -4.91,10.96 -10.96,10.96 -6.05,0 -10.96,-4.91 -10.96,-10.96 v -25.77 h -25.77 c -6.06,0 -10.97,-4.91 -10.97,-10.97 0,-6.04 4.91,-10.95 10.97,-10.95 h 25.77 v -25.78 c 0,-6.04 4.91,-10.96 10.96,-10.96 6.05,0 10.96,4.92 10.96,10.96 v 25.78 h 25.77 c 6.05,0 10.96,4.91 10.96,10.95 0,6.06 -4.91,10.97 -10.96,10.97 h -25.77 v 25.77" /><path
         id="path56"
         style="fill:#adbee3;fill-opacity:1;fill-rule:evenodd;stroke:none"
         d="m 3350.15,4163.39 c -8.86,-2.55 -17.25,-6.16 -25.05,-10.66 -8,-4.62 -15.37,-10.2 -21.98,-16.56 -1.28,-1.24 -3.2,-1.43 -4.67,-0.57 l -29.7,17.14 -0.16,0.1 c -1.7,0.92 -3.64,1.1 -5.42,0.62 -1.82,-0.49 -3.46,-1.67 -4.46,-3.42 l -0.13,-0.2 -20.89,-36.18 c -1.01,-1.75 -1.21,-3.76 -0.72,-5.6 0.49,-1.82 1.67,-3.45 3.42,-4.47 l 0.2,-0.13 29.45,-17 c 1.55,-0.88 2.26,-2.67 1.85,-4.33 h 0.01 c -1.08,-4.38 -1.92,-8.88 -2.48,-13.5 -0.55,-4.49 -0.83,-9.08 -0.83,-13.76 0,-4.67 0.28,-9.27 0.83,-13.77 0.56,-4.61 1.4,-9.11 2.48,-13.5 0.45,-1.82 -0.45,-3.65 -2.08,-4.45 l -29.43,-17 v -0.01 c -1.75,-1 -2.93,-2.64 -3.42,-4.47 -0.49,-1.83 -0.29,-3.85 0.72,-5.59 l 21.01,-36.39 0.01,0.01 c 1,-1.75 2.64,-2.93 4.46,-3.42 1.83,-0.49 3.84,-0.29 5.58,0.71 l 0.22,0.12 29.49,17.03 c 1.54,0.88 3.44,0.6 4.66,-0.57 6.61,-6.37 13.98,-11.94 21.98,-16.56 7.84,-4.54 16.29,-8.15 25.21,-10.71 1.73,-0.49 2.85,-2.07 2.85,-3.78 v -34.25 c 0,-2.02 0.83,-3.86 2.16,-5.18 1.34,-1.34 3.18,-2.17 5.19,-2.17 h 42.03 c 2.02,0 3.86,0.83 5.19,2.17 1.33,1.32 2.16,3.16 2.16,5.18 v 34.25 c 0,1.85 1.29,3.41 3.02,3.83 8.85,2.55 17.25,6.15 25.04,10.66 8,4.62 15.37,10.19 21.98,16.56 1.34,1.3 3.38,1.44 4.87,0.44 l 29.5,-17.02 c 1.73,-1 3.75,-1.2 5.58,-0.71 1.82,0.49 3.46,1.66 4.47,3.42 l 0.13,0.2 20.89,36.19 v 0 c 1,1.75 1.2,3.75 0.71,5.58 -0.49,1.83 -1.66,3.47 -3.4,4.47 l -29.67,17.13 c -1.55,0.89 -2.25,2.68 -1.85,4.33 v 0 c 1.08,4.38 1.92,8.89 2.47,13.5 0.55,4.5 0.83,9.09 0.83,13.77 0,4.68 -0.28,9.27 -0.83,13.77 -0.55,4.61 -1.39,9.11 -2.47,13.49 -0.45,1.83 0.46,3.67 2.07,4.46 l 29.45,17 c 1.74,1 2.91,2.64 3.4,4.47 0.49,1.83 0.29,3.84 -0.71,5.58 l -0.12,0.22 -20.89,36.18 h -0.01 c -1.01,1.75 -2.65,2.93 -4.47,3.42 -1.83,0.49 -3.84,0.29 -5.58,-0.71 v -0.01 l -29.69,-17.14 c -1.58,-0.92 -3.55,-0.6 -4.77,0.65 -6.58,6.33 -13.93,11.87 -21.89,16.48 -7.84,4.53 -16.29,8.15 -25.21,10.71 -1.72,0.49 -2.85,2.06 -2.85,3.77 v 34.25 c 0,2.02 -0.83,3.86 -2.16,5.19 -1.33,1.33 -3.17,2.16 -5.19,2.16 h -42.03 c -2.01,0 -3.85,-0.83 -5.19,-2.16 -1.33,-1.33 -2.16,-3.17 -2.16,-5.19 v -34.25 c 0,-1.85 -1.29,-3.41 -3.01,-3.82 z m -13.81,-63.34 c 11.56,11.56 27.54,18.72 45.19,18.72 17.64,0 33.62,-7.16 45.18,-18.72 11.57,-11.56 18.72,-27.54 18.72,-45.18 0,-17.65 -7.15,-33.62 -18.72,-45.19 -11.56,-11.56 -27.54,-18.72 -45.18,-18.72 -17.65,0 -33.63,7.16 -45.19,18.72 -11.56,11.57 -18.71,27.54 -18.71,45.19 0,17.64 7.15,33.62 18.71,45.18 z m -33.22,-126.49 v 0 0" /><path
         id="path58"
         style="fill:#adbee3;fill-opacity:1;fill-rule:evenodd;stroke:none"
         d="m 6897.26,4262.36 c 0,6.05 -4.91,10.96 -10.96,10.96 -6.06,0 -10.96,-4.91 -10.96,-10.96 v -25.77 h -25.77 c -6.05,0 -10.97,-4.91 -10.97,-10.96 0,-6.06 4.92,-10.96 10.97,-10.96 h 25.77 v -25.78 c 0,-6.05 4.9,-10.96 10.96,-10.96 6.05,0 10.96,4.91 10.96,10.96 v 25.78 h 25.78 c 6.04,0 10.95,4.9 10.95,10.96 0,6.05 -4.91,10.96 -10.95,10.96 h -25.78 v 25.77" /><path
         id="path60"
         style="fill:#adbee3;fill-opacity:1;fill-rule:evenodd;stroke:none"
         d="m 508.645,1403.12 c 0,6.05 -4.907,10.96 -10.957,10.96 -6.055,0 -10.961,-4.91 -10.961,-10.96 v -25.78 h -25.77 c -6.055,0 -10.961,-4.9 -10.961,-10.95 0,-6.06 4.906,-10.97 10.961,-10.97 h 25.77 v -25.77 c 0,-6.05 4.906,-10.96 10.961,-10.96 6.05,0 10.957,4.91 10.957,10.96 v 25.77 h 25.773 c 6.055,0 10.957,4.91 10.957,10.97 0,6.05 -4.902,10.95 -10.957,10.95 h -25.773 v 25.78" /><path
         id="path62"
         style="fill:#adbee3;fill-opacity:1;fill-rule:evenodd;stroke:none"
         d="m 4049.73,3583.69 c -8.86,-2.56 -17.26,-6.17 -25.05,-10.67 -8,-4.62 -15.37,-10.2 -21.98,-16.56 -1.28,-1.25 -3.2,-1.43 -4.67,-0.57 l -29.7,17.14 -0.16,0.1 c -1.71,0.92 -3.64,1.09 -5.42,0.62 -1.82,-0.49 -3.45,-1.67 -4.47,-3.41 l -0.12,-0.21 -20.89,-36.18 c -1.01,-1.75 -1.21,-3.76 -0.72,-5.6 0.49,-1.82 1.67,-3.46 3.42,-4.47 l 0.2,-0.13 29.46,-16.99 c 1.53,-0.89 2.24,-2.68 1.83,-4.33 h 0.02 c -1.09,-4.38 -1.92,-8.89 -2.49,-13.5 -0.54,-4.5 -0.82,-9.1 -0.82,-13.77 0,-4.67 0.28,-9.27 0.82,-13.77 0.57,-4.61 1.4,-9.12 2.49,-13.5 0.44,-1.82 -0.45,-3.65 -2.08,-4.45 l -29.44,-17 h 0.01 c -1.75,-1.01 -2.93,-2.66 -3.42,-4.48 -0.49,-1.83 -0.29,-3.84 0.72,-5.58 l 21.01,-36.4 v 0.01 c 1.02,-1.75 2.65,-2.93 4.47,-3.42 1.83,-0.49 3.84,-0.29 5.58,0.72 l 0.22,0.12 29.49,17.02 c 1.54,0.89 3.44,0.6 4.66,-0.57 6.61,-6.36 13.98,-11.94 21.98,-16.56 7.84,-4.54 16.29,-8.15 25.21,-10.71 1.73,-0.49 2.84,-2.07 2.85,-3.78 v -34.25 c 0,-2.01 0.83,-3.85 2.16,-5.19 1.34,-1.33 3.18,-2.15 5.2,-2.15 h 42.02 c 2.01,0 3.86,0.82 5.19,2.15 1.33,1.34 2.16,3.18 2.16,5.19 v 34.25 c 0,1.86 1.29,3.42 3.02,3.83 8.86,2.55 17.26,6.15 25.05,10.66 8,4.62 15.37,10.2 21.96,16.56 1.35,1.3 3.39,1.44 4.88,0.45 l 29.5,-17.02 c 1.74,-1.01 3.75,-1.21 5.58,-0.72 1.82,0.49 3.46,1.67 4.47,3.42 l 0.12,0.2 20.9,36.2 v 0 c 1.01,1.74 1.2,3.75 0.71,5.57 -0.49,1.83 -1.67,3.47 -3.4,4.48 l -29.67,17.12 c -1.55,0.89 -2.25,2.68 -1.85,4.33 v 0 c 1.09,4.38 1.92,8.89 2.47,13.5 0.55,4.5 0.83,9.09 0.83,13.77 0,4.67 -0.28,9.27 -0.83,13.77 -0.55,4.61 -1.38,9.12 -2.47,13.5 -0.45,1.82 0.45,3.65 2.07,4.45 l 29.45,17 c 1.73,1 2.91,2.64 3.4,4.47 0.49,1.84 0.3,3.84 -0.71,5.58 l -0.13,0.22 -20.88,36.19 v 0 c -1.02,1.74 -2.66,2.92 -4.48,3.41 -1.82,0.49 -3.84,0.29 -5.58,-0.71 l 0.01,-0.01 -29.71,-17.14 c -1.57,-0.92 -3.54,-0.61 -4.76,0.65 -6.58,6.33 -13.92,11.87 -21.88,16.48 -7.84,4.53 -16.31,8.15 -25.22,10.71 -1.72,0.49 -2.85,2.06 -2.85,3.77 v 34.26 c 0,2.01 -0.83,3.85 -2.16,5.18 -1.33,1.34 -3.18,2.16 -5.19,2.16 h -42.02 c -2.02,0 -3.86,-0.82 -5.2,-2.16 -1.33,-1.33 -2.16,-3.17 -2.16,-5.18 v -34.26 c 0,-1.85 -1.29,-3.41 -3.01,-3.81 z m -13.81,-63.35 c 11.57,11.56 27.55,18.72 45.19,18.72 17.64,0 33.62,-7.16 45.19,-18.72 11.55,-11.56 18.71,-27.54 18.71,-45.18 0,-17.65 -7.16,-33.62 -18.71,-45.19 -11.57,-11.56 -27.55,-18.72 -45.19,-18.72 -17.64,0 -33.62,7.16 -45.19,18.72 -11.56,11.57 -18.71,27.54 -18.71,45.19 0,17.64 7.15,33.62 18.71,45.18 z m -33.22,-126.48 v 0 0" /><path
         id="path64"
         style="fill:#adbee3;fill-opacity:1;fill-rule:evenodd;stroke:none"
         d="m 3603.89,3557.15 c 0,6.05 -4.91,10.96 -10.96,10.96 -6.06,0 -10.96,-4.91 -10.96,-10.96 v -25.77 h -25.77 c -6.05,0 -10.96,-4.91 -10.96,-10.96 0,-6.05 4.91,-10.97 10.96,-10.97 h 25.77 v -25.77 c 0,-6.05 4.9,-10.96 10.96,-10.96 6.05,0 10.96,4.91 10.96,10.96 v 25.77 h 25.77 c 6.06,0 10.96,4.92 10.96,10.97 0,6.05 -4.9,10.96 -10.96,10.96 h -25.77 v 25.77" /><path
         id="path66"
         style="fill:#adbee3;fill-opacity:1;fill-rule:evenodd;stroke:none"
         d="m 3648.56,2343.47 c 0,6.04 -4.9,10.95 -10.95,10.95 -6.06,0 -10.96,-4.91 -10.96,-10.95 v -25.77 h -25.78 c -6.05,0 -10.95,-4.92 -10.95,-10.97 0,-6.06 4.9,-10.96 10.95,-10.96 h 25.78 V 2270 c 0,-6.05 4.9,-10.97 10.96,-10.97 6.05,0 10.95,4.92 10.95,10.97 v 25.77 h 25.78 c 6.05,0 10.96,4.9 10.96,10.96 0,6.05 -4.91,10.97 -10.96,10.97 h -25.78 v 25.77" /><path
         id="path68"
         style="fill:#adbee3;fill-opacity:1;fill-rule:evenodd;stroke:none"
         d="m 2688.04,2887.02 c 0,6.05 -4.91,10.96 -10.96,10.96 -6.05,0 -10.96,-4.91 -10.96,-10.96 v -25.77 h -25.77 c -6.05,0 -10.97,-4.91 -10.97,-10.97 0,-6.05 4.92,-10.96 10.97,-10.96 h 25.77 v -25.77 c 0,-6.05 4.91,-10.96 10.96,-10.96 6.05,0 10.96,4.91 10.96,10.96 v 25.77 h 25.77 c 6.05,0 10.97,4.91 10.97,10.96 0,6.06 -4.92,10.97 -10.97,10.97 h -25.77 v 25.77" /><path
         id="path70"
         style="fill:#adbee3;fill-opacity:1;fill-rule:evenodd;stroke:none"
         d="m 6331.37,2951.87 c 0,6.05 -4.91,10.96 -10.96,10.96 -6.06,0 -10.97,-4.91 -10.97,-10.96 v -25.77 h -25.76 c -6.05,0 -10.97,-4.9 -10.97,-10.96 0,-6.05 4.92,-10.96 10.97,-10.96 h 25.76 v -25.77 c 0,-6.05 4.91,-10.96 10.97,-10.96 6.05,0 10.96,4.91 10.96,10.96 v 25.77 h 25.77 c 6.05,0 10.96,4.91 10.96,10.96 0,6.06 -4.91,10.96 -10.96,10.96 h -25.77 v 25.77" /><path
         id="path72"
         style="fill:#1d1c30;fill-opacity:1;fill-rule:evenodd;stroke:none"
         d="m 4723.79,2143.48 c 0,0 65.29,-21.64 116.79,-84.17 29.12,-35.36 385.46,-718.05 408.35,-762.48 22.88,-44.46 22.84,-156.8 -31.16,-225.94 -20.95,-26.86 -81.21,-102.011 -147.06,-183.91 h -213.48 c 77.52,116.32 178.73,268.43 185.98,280.68 11.86,20.01 17.81,39.37 -3.85,73.18 -21.66,33.82 -306.92,381.6 -306.92,381.6 0,0 -140.23,392.04 -8.65,521.04" /><path
         id="path74"
         style="fill:none;stroke:#1e1c32;stroke-width:2.16000009;stroke-linecap:butt;stroke-linejoin:miter;stroke-miterlimit:22.92560005;stroke-dasharray:none;stroke-opacity:1"
         d="m 4723.79,2143.48 c 0,0 65.29,-21.64 116.79,-84.17 29.12,-35.36 385.46,-718.05 408.35,-762.48 22.88,-44.46 22.84,-156.8 -31.16,-225.94 -20.95,-26.86 -81.21,-102.011 -147.06,-183.91 h -213.48 c 77.52,116.32 178.73,268.43 185.98,280.68 11.86,20.01 17.81,39.37 -3.85,73.18 -21.66,33.82 -306.92,381.6 -306.92,381.6 0,0 -140.23,392.04 -8.65,521.04 z" /><path
         id="path76"
         style="fill:#c7bcc4;fill-opacity:1;fill-rule:evenodd;stroke:none"
         d="m 4348.98,2198.39 c 0,0 359.32,-51.08 374.81,-54.91 15.49,-3.84 41.72,-39.98 55.85,-64.36 14.14,-24.38 30.74,-375.11 38.79,-473.32 8.04,-98.21 -23.64,-526.35 -14.2,-641.339 1.56,-19.082 4.49,-45.93 8.29,-77.481 H 3737.69 c -13.79,127.16 -109.64,525.03 -117.48,620.63 -8.04,98.2 -48.76,446.95 -38.78,473.31 9.97,26.35 29.97,66.29 44.62,72.6 14.66,6.29 365.07,115.53 365.07,115.53 l 179.64,-19.81 178.22,49.15" /><path
         id="path78"
         style="fill:#ffffff;fill-opacity:1;fill-rule:evenodd;stroke:none"
         d="m 4348.98,2198.39 c 0,0 23.81,-3.4 59.4,-8.48 -1.64,-8.7 -5.76,-16.87 -12.31,-24.38 -139.6,-160 -282.26,-171.7 -446.05,-36.57 -7.73,6.38 -13.15,13.83 -16.17,22.21 34.33,10.73 57.27,17.88 57.27,17.88 l 179.64,-19.81 178.22,49.15" /><path
         id="path80"
         style="fill:#f04153;fill-opacity:1;fill-rule:evenodd;stroke:none"
         d="m 4286.14,2544.48 3.07,-89.45 c 0,0 14.96,-182.53 17.24,-210.25 1.09,-13.39 16.6,-31.59 42.53,-46.4 -117.47,-134.64 -220.03,-143.05 -357.86,-29.33 23.19,18.84 35.52,39.31 34.43,52.71 -2.27,27.71 -17.24,210.25 -17.24,210.25 l -11.52,88.76 c 0,0 72.14,-5.63 146.94,-15.76 72.14,22.17 142.41,39.47 142.41,39.47" /><path
         id="path82"
         style="fill:#1d1c30;fill-opacity:1;fill-rule:evenodd;stroke:none"
         d="m 4378.68,2194.15 c 0,0 -41.54,-179.55 -44.63,-216.09 -3.07,-36.55 -51.89,-404.4 -46.79,-466.58 2.31,-28.29 58.52,-315.73 119.7,-624.5 h 489.55 c -12,75.258 -22.31,140.15 -27.85,176.79 -19.89,131.74 -33.23,405.55 -28.88,574.65 4.34,169.1 -37.69,422.86 -42.69,446.95 -5.01,24.08 -52.99,54.18 -67.86,59.77 l -350.55,49.01" /><path
         id="path84"
         style="fill:#393a56;fill-opacity:1;fill-rule:evenodd;stroke:none"
         d="m 4325.07,1901.22 c -14.73,-121.21 -41.67,-342.74 -37.81,-389.74 0,0 238.11,259.25 234.5,284.81 -3.62,25.57 -100.49,216.28 -100.49,216.28 0,0 -41.62,-47.86 -96.2,-111.35" /><path
         id="path86"
         style="fill:#4b526d;fill-opacity:1;fill-rule:evenodd;stroke:none"
         d="m 4366.74,2195.86 c 0,0 10.54,9.42 14.3,9.74 3.77,0.3 68.37,-21.56 68.37,-21.56 0,0 94.24,-148.16 95.79,-167.08 1.55,-18.92 -231.42,-209.53 -231.42,-209.53 l 20.65,174.29 c 0,0 33.77,170.38 44.25,212.43 l -11.94,1.71" /><path
         id="path88"
         style="fill:#1d1c30;fill-opacity:1;fill-rule:evenodd;stroke:none"
         d="m 3630.24,2053.86 c 0,0 -60.9,-31.99 -101.52,-102.07 -22.98,-39.63 -263.43,-771.22 -278.77,-818.79 -15.35,-47.58 2.99,-158.43 67.52,-217.852 6.99,-6.437 17.61,-16.078 30.97,-28.168 h 266.43 c -70.57,75.68 -134.46,144.38 -140.92,152.06 -14.96,17.82 -23.97,35.96 -8.11,72.85 15.86,36.89 240.69,426.48 240.69,426.48 0,0 74.53,409.64 -76.29,515.49" /><path
         id="path90"
         style="fill:#1d1c30;fill-opacity:1;fill-rule:evenodd;stroke:none"
         d="m 3962.49,2160.04 c 0,0 70.22,-170.39 79.22,-205.95 8.98,-35.55 117.03,-390.54 122.14,-452.72 2.26,-27.65 -5.97,-307.97 -15.77,-614.39 h -484.29 c -0.21,31.981 -0.45,58.829 -0.7,77.989 -1.82,133.211 -33.24,405.541 -65.07,571.681 -31.82,166.14 -31.66,423.36 -30.64,447.94 1.01,24.58 43.45,62.09 57.22,70.02 l 337.89,105.43" /><path
         id="path92"
         style="fill:#393a56;fill-opacity:1;fill-rule:evenodd;stroke:none"
         d="m 4063.09,1879.75 c 34.25,-117.2 96.9,-331.39 100.76,-378.38 0,0 -277.15,217.02 -277.75,242.83 -0.6,25.81 63.94,229.75 63.94,229.75 0,0 48.85,-40.44 113.05,-94.2" /><path
         id="path94"
         style="fill:#4b526d;fill-opacity:1;fill-rule:evenodd;stroke:none"
         d="m 3973.98,2163.66 c 0,0 -11.92,7.6 -15.68,7.29 -3.78,-0.31 -63.95,-32.4 -63.95,-32.4 0,0 -68.87,-161.52 -67.31,-180.44 1.54,-18.93 262.44,-169.06 262.44,-169.06 l -48.75,168.61 c 0,0 -61.05,162.59 -78.24,202.38 l 11.49,3.62" /><path
         id="path96"
         style="fill:#f04153;fill-opacity:1;fill-rule:evenodd;stroke:none"
         d="m 3842,2489.98 c -1.8,-0.41 -3.57,-0.88 -5.32,-1.42 l -0.05,-0.02 v 0.01 c -32.2,-9.88 -54.51,-40.94 -51.99,-75.97 2.95,-40.72 38.34,-71.35 79.04,-68.41 40.72,2.94 71.35,38.32 68.41,79.03 -1.69,23.67 -14.37,43.92 -32.67,56.16 3.86,-21.57 2.86,-48.77 -24.64,-54 l -3.06,42.51 c -1.24,17.21 -17.98,23.65 -29.72,22.11" /><path
         id="path98"
         style="fill:#f04153;fill-opacity:1;fill-rule:evenodd;stroke:none"
         d="m 4373.26,2538.44 c 1.85,-0.09 3.67,-0.22 5.48,-0.43 l 0.06,-0.01 v 0.01 c 33.45,-3.89 61.02,-30.42 64.87,-65.32 4.47,-40.57 -24.79,-77.1 -65.35,-81.58 -40.58,-4.48 -77.11,24.79 -81.59,65.35 -2.61,23.59 6.19,45.8 21.97,61.14 0.11,-21.9 6.03,-48.48 34,-48.64 l -4.67,42.36 c -1.9,17.15 13.41,26.52 25.23,27.12" /><path
         id="path100"
         style="fill:#f78e73;fill-opacity:1;fill-rule:evenodd;stroke:none"
         d="m 4074.1,2881.9 -0.03,-0.01 c -138.57,-12.64 -241.65,-136.39 -229,-275 l 20.9,-229.22 c 12.64,-138.61 136.41,-241.66 274.99,-229.03 l 0.03,0.01 c 138.58,12.64 241.66,136.39 229.01,275 l -20.9,229.23 c -12.65,138.6 -136.41,241.66 -275,229.02" /><path
         id="path102"
         style="fill:#f46b62;fill-opacity:1;fill-rule:evenodd;stroke:none"
         d="m 3860.66,2719.71 c -13.38,-34.9 -19.21,-73.25 -15.59,-112.82 l 20.9,-229.21 c 11.91,-130.54 122.37,-229.54 250.95,-230.06 -146.51,11.27 -173.64,184.42 -184.83,275.58 -11.17,91.2 22.96,111.6 36.54,116.12 13.58,4.53 226.34,39.84 273.41,45.27 47.08,5.43 70.75,-20.68 70.75,-20.68 l 19.79,28.83 -19.02,61.56 c 0,0 16.24,-0.54 35.39,-0.06 -1.59,16.43 -4.74,32.36 -9.29,47.64 -27.2,9.6 -57.77,21.16 -83.14,37.53 -56.12,36.21 -324.11,-9.06 -367.56,-9.06 -6.51,0 -16.3,-3.9 -28.3,-10.64" /><path
         id="path104"
         style="fill:#1e1c32;fill-opacity:1;fill-rule:evenodd;stroke:none"
         d="m 4333.45,2531.25 c 0,0 1.53,-16.84 2.97,-32.49 1.42,-15.64 17.53,-31.76 29.53,-30.66 l -3.25,35.49 c 0,0 2.71,26.65 35.04,29.59 88.79,123.09 59.19,302.93 -55.25,387.13 -114.45,84.2 -342.43,69.47 -380.93,52.61 -38.49,-16.86 -73.25,-87.96 -73.25,-87.96 0,0 -36.45,27.01 -66.31,8.52 -29.85,-18.5 -116.55,-225.37 -112.04,-274.72 4.5,-49.33 108.92,-138.38 108.92,-138.38 32.32,2.95 39.79,-22.76 39.79,-22.76 l 3.24,-35.5 c 12,1.09 24.93,19.86 23.51,35.51 -1.43,15.64 -2.97,32.49 -2.97,32.49 1.13,0.62 2.23,1.28 3.33,1.93 30.56,19.86 24.49,80.51 24.49,80.51 l -28.16,39.4 55.9,73.53 64.31,21.16 146.12,-5.6 c 0,0 172.3,-21.42 157.21,-71.56 -15.07,-50.16 27.8,-98.24 27.8,-98.24" /><path
         id="path106"
         style="fill:#16131a;fill-opacity:1;fill-rule:evenodd;stroke:none"
         d="m 3716.39,2662.08 c -4.8,-18.6 -7.3,-33.85 -6.43,-43.32 3.47,-38.02 130.05,-221.61 158.15,-263.34 14.63,1.33 16.59,110.09 14.34,134.7 1.13,0.63 2.22,1.27 3.33,1.93 30.56,19.86 24.49,80.51 24.49,80.51 l -28.16,39.4 55.9,73.54 61.35,20.18 c -30.88,12.45 -39.8,25.56 -39.8,25.56 -126.82,-128.32 -200.42,-121.31 -243.17,-69.16 z m 617.06,-130.83 c 1.75,-19.3 14.67,-105.54 37.16,-103.49 67.03,141.2 128.93,288.58 29.07,433.24 -11.75,-93.09 -104.48,-149.87 -197.34,-169.41 49.13,-10.7 112.73,-30.8 103.31,-62.1 -15.07,-50.16 27.8,-98.24 27.8,-98.24 v 0" /><path
         id="path108"
         style="fill:#1e1c32;fill-opacity:1;fill-rule:evenodd;stroke:none"
         d="m 3820.95,2527.3 c 0,0 -106.01,229.84 107.24,269.14 0,0 56.45,111.44 169.53,83.49 113.1,-27.94 183.88,-27.16 234.6,22.81 0,0 29.09,-54.74 -6.23,-102.6 107.05,-83.06 69.87,-189.56 26.07,-247.04 -17.55,119.12 -331.36,-13.48 -372.38,101.02 -4.09,-109.41 -118.79,-82.19 -158.83,-126.82" /><path
         id="path110"
         style="fill:#16131a;fill-opacity:1;fill-rule:evenodd;stroke:none"
         d="m 3820.95,2527.3 c 0,0 -21.15,45.88 -25.54,100.13 41.22,3.92 94.69,33.52 164.15,103.81 0,0 28.37,-41.7 159.35,-47.08 79.55,-3.27 180.69,26.17 237.71,87.51 68.16,-77.66 34.47,-167.48 -4.46,-218.57 -17.55,119.12 -331.35,-13.48 -372.39,101.02 -4.08,-109.41 -118.78,-82.19 -158.82,-126.82" /><path
         id="path112"
         style="fill:#232f4d;fill-opacity:1;fill-rule:evenodd;stroke:none"
         d="m 6902.87,2502.53 c -44.84,168.11 -201.5,75.67 -268.54,-68.26 -67.05,-143.94 -220.67,-705.35 -353.48,-850.72 -51.48,-56.34 -35.73,-61.08 11.59,-33.64 236.05,136.84 672.15,721.21 610.43,952.62" /><path
         id="path114"
         style="fill:#1e75bc;fill-opacity:1;fill-rule:evenodd;stroke:none"
         d="m 6249.13,1539.79 c -1.62,-7.56 5.49,-7.92 18.95,-2.35 357.86,302.66 547.9,979.25 548.51,981.42 1.06,3.72 -1.1,7.59 -4.81,8.65 -3.72,1.07 -7.6,-1.09 -8.67,-4.81 -0.61,-2.18 -193.25,-688 -553.98,-982.91" /><path
         id="path116"
         style="fill:#1e75bc;fill-opacity:1;fill-rule:evenodd;stroke:none"
         d="m 6506.31,2412.88 c -78.2,122.57 -179.62,9.36 -196.64,-122.23 -17.03,-131.59 2.48,-617.58 -66.57,-766.93 -26.76,-57.89 -13.03,-57.68 17.73,-23.87 153.44,168.65 353.12,744.31 245.48,913.03" /><path
         id="path118"
         style="fill:#232f4d;fill-opacity:1;fill-rule:evenodd;stroke:none"
         d="m 6228.9,1480.84 c 0.61,-6.44 6.36,-4.91 15.67,2.93 208.56,331.5 188.95,918.43 188.89,920.31 -0.09,3.23 -2.8,5.78 -6.02,5.69 -3.23,-0.1 -5.77,-2.8 -5.68,-6.03 0.06,-1.89 19.94,-596.84 -192.86,-922.9" /><path
         id="path120"
         style="fill:#1e75bc;fill-opacity:1;fill-rule:evenodd;stroke:none"
         d="m 6893.99,1995.76 c 135.15,-14.09 82.94,-146.21 -19.91,-215.48 -102.85,-69.25 -517.19,-256.21 -613.13,-376.37 -37.19,-46.59 -42.76,-35.01 -27.37,4.84 76.78,198.76 474.39,606.41 660.41,587.01" /><path
         id="path122"
         style="fill:#232f4d;fill-opacity:1;fill-rule:evenodd;stroke:none"
         d="m 6231.05,1374.1 c -5.63,-2.17 -6.76,3.27 -4.11,14.33 189.84,312.95 688.58,542.02 690.17,542.77 2.74,1.26 5.99,0.08 7.26,-2.66 1.27,-2.74 0.09,-5.99 -2.65,-7.27 -1.6,-0.74 -507.15,-232.95 -690.67,-547.17" /><path
         id="path124"
         style="fill:#1e1c32;fill-opacity:1;fill-rule:evenodd;stroke:none"
         d="m 4963.92,2164.64 -33.56,-294.87 c 0,0 50.72,-690.57 75.67,-982.79 h 376.59 l 8.27,1175.31 -426.97,102.35" /><path
         id="path126"
         style="fill:#1e1c32;fill-opacity:1;fill-rule:evenodd;stroke:none"
         d="m 5163.63,1908.89 -16.58,-104.22 33,-917.69 h 459.1 c 7.66,63.52 14.57,117.83 20.17,156.98 34.48,241.37 46.28,576.83 46.13,656.23 -0.16,79.39 -92.11,197.21 -123.72,205.84 -31.6,8.61 -418.1,2.86 -418.1,2.86" /><path
         id="path128"
         style="fill:#23203b;fill-opacity:1;fill-rule:evenodd;stroke:none"
         d="m 5010.06,3325.76 c 0,0 -15.68,29.18 -28.06,23.71 -12.38,-5.48 -428.07,-617.15 -442.16,-669.78 -14.07,-52.63 -8.29,-145.93 72.17,-275.4 80.45,-129.48 252.6,-447.27 258.67,-454.12 6.08,-6.86 100.15,56.91 110.18,74.73 0,0 4.12,5.86 -1.91,17.77 -6.03,11.92 -210.68,496.66 -223.64,531.46 -12.95,34.79 351.65,466.34 369.04,500.85 17.41,34.52 84.42,215.58 -114.29,250.78" /><path
         id="path130"
         style="fill:#c2b6c7;fill-opacity:1;fill-rule:evenodd;stroke:none"
         d="m 5343.24,3500.96 -181.03,-129.31 c 0,0 -129.15,-505.65 -129.65,-528.63 -0.51,-22.98 -49.95,-301.82 -49.95,-301.82 0,0 181.03,-71.83 206.89,-2.87 25.86,68.96 316.1,563.21 330.46,640.8 14.37,77.58 -20.12,261.49 -37.36,281.6 -17.24,20.12 -139.36,40.23 -139.36,40.23" /><path
         id="path132"
         style="fill:#23203b;fill-opacity:1;fill-rule:evenodd;stroke:none"
         d="m 5161.03,3415.78 c 0,0 -163.95,-57.69 -179.03,-66.31 -15.09,-8.62 -103.64,-331.32 -110.82,-361.49 -7.19,-30.17 40.24,-583.31 40.24,-632.17 0,-48.86 -61.78,-659.47 -63.23,-669.53 -1.42,-10.06 4.32,-21.55 18.68,-21.55 14.37,0 175.29,303.15 188.22,337.63 12.93,34.49 -28.93,554.56 -28.93,554.56 l 109.41,744.28 25.46,114.58" /><path
         id="path134"
         style="fill:#272646;fill-opacity:1;fill-rule:evenodd;stroke:none"
         d="m 5647.73,3334.01 c 0,0 234.99,-236.85 243.61,-251.22 8.62,-14.37 -235.62,-823.27 -238.49,-860.62 -2.88,-37.36 120.7,-587.64 125.01,-602 0,0 0.71,-5.75 -3.59,-14.37 -4.31,-8.62 -14.37,-13.65 -19.39,-17.25 -5.04,-3.59 -579.73,89.09 -625.72,117.83 -45.97,28.72 -145.11,475.56 -145.11,535.91 0,60.34 34.76,291.29 34.76,291.29 l 282.77,478.81 c 0,0 204.28,306.38 346.15,321.62" /><path
         id="path136"
         style="fill:#201f38;fill-opacity:1;fill-rule:evenodd;stroke:none"
         d="m 5610.51,3371.25 c 0,0 272.21,-274.1 280.83,-288.46 8.62,-14.37 -235.62,-823.27 -238.49,-860.62 -2.88,-37.36 120.7,-587.64 125.01,-602 0,0 0.71,-5.75 -3.59,-14.37 -4.31,-8.62 -14.37,-13.65 -19.4,-17.25 -2.59,-1.84 -155.46,21.71 -309.77,48.95 133.86,192.94 126.87,512.6 115.19,532.04 -13.57,22.65 -85.1,71.52 -74.24,75.15 10.87,3.62 84.19,5.43 89.62,23.53 5.43,18.11 108.59,590.93 108.59,590.93 l 68.86,46.43 c 0,0 30.79,222.71 9.06,255.3 -21.65,32.46 -165.03,155.83 -166.2,156.83 17.82,8.75 -2.02,51.75 14.53,53.54" /><path
         id="path138"
         style="fill:#38385f;fill-opacity:1;fill-rule:evenodd;stroke:none"
         d="m 5858.46,3118.89 c 0,0 35.57,-28.37 60.19,-60.48 24.62,-32.11 331.25,-673.07 337.58,-733.15 6.34,-60.07 -16.1,-161.27 -126.58,-289.2 -110.48,-127.92 -353.9,-446.27 -361.74,-452.73 -7.84,-6.46 -99.86,79.62 -107.77,100.88 0,0 -3.51,7.12 5.15,19.13 8.67,12.02 316.52,507.63 336.72,543.5 20.2,35.87 -304.66,571.49 -317.75,612.31 -13.11,40.81 -49.53,255.49 174.2,259.74" /><path
         id="path140"
         style="fill:#f46b62;fill-opacity:1;fill-rule:evenodd;stroke:none"
         d="m 5515.22,3726.04 c 1.66,-89.58 -21.57,-182.11 -15.7,-271.82 1.2,-18.3 9.96,-24.38 32.54,-39.05 31.27,-46.53 -54.25,-193.68 -110.49,-202.44 -3.72,-0.58 -95.33,71.26 -160.22,87.94 -33.3,8.55 -60.73,-33.98 -63.23,-32.16 -13.49,9.81 15.52,85.92 6.07,114.8 11.41,3.06 21.58,28.56 29.68,35.99 52.56,48.49 35.42,169.52 -7.65,215.25 -32.16,34.13 289,91.49 289,91.49" /><path
         id="path142"
         style="fill:#ffffff;fill-opacity:1;fill-rule:evenodd;stroke:none"
         d="m 5574.47,3380.02 c -7.15,-20.26 -180.84,-252.09 -180.84,-252.09 0,0 -6.21,-8.33 -15.29,2.23 -9.06,10.55 -116.09,159.93 -116.09,159.93 l 237.66,177.09 -5.43,40.74 c 3.49,3.72 87.34,-107.08 79.99,-127.9" /><path
         id="path144"
         style="fill:#ffffff;fill-opacity:1;fill-rule:evenodd;stroke:none"
         d="m 5255.98,3455.39 c 0.06,0.12 -0.26,0.35 -0.91,0.4 -81.24,5.73 -93.55,-224.45 -79.27,-269.57 0.1,-0.3 49.37,75.33 83.34,105.42 15.37,13.6 -32.72,117.61 -3.16,163.75" /><path
         id="path146"
         style="fill:#38385f;fill-opacity:1;fill-rule:evenodd;stroke:none"
         d="m 5554,3446.19 c 0,0 -303.87,-376.7 -325.43,-408.3 -21.54,-31.61 -186.77,-420.98 -209.76,-504.31 0,0 254.31,317.53 290.23,346.26 35.91,28.73 168.85,139.37 168.85,139.37 0,0 3.58,7.19 1.79,12.22 -1.79,5.02 -38.78,88.71 -38.78,88.71 0,0 110.63,-16.52 120.68,-15.8 10.06,0.71 59.73,247.54 61.16,254.73 1.45,7.18 -68.74,87.12 -68.74,87.12" /><path
         id="path148"
         style="fill:#38385f;fill-opacity:1;fill-rule:evenodd;stroke:none"
         d="m 5256.64,3455.95 c 0,0 -80.38,-18.63 -93.31,-25.81 -12.92,-7.19 -114.94,-176.72 -117.81,-191.09 0,0 -1.44,-6.83 4.3,-9.7 5.76,-2.88 26.95,-16.16 29.11,-18.32 2.14,-2.15 -35.57,-6.46 -35.57,-6.46 0,0 -4.3,-1.63 -3.58,-8.27 0.72,-6.64 -13.62,-639.38 -13.62,-639.38 0,0 125.41,699.65 143.97,745.71 18.55,46.05 68.47,118.89 68.47,118.89 l 18.04,34.43" /><path
         id="path150"
         style="fill:#f04153;fill-opacity:1;fill-rule:evenodd;stroke:none"
         d="m 5119.93,3856.38 c 39.57,0.21 71.84,-31.69 72.06,-71.26 0.22,-39.58 -31.69,-71.84 -71.27,-72.06 -39.56,-0.22 -71.82,31.69 -72.05,71.26 -0.22,39.57 31.69,71.83 71.26,72.06" /><path
         id="path152"
         style="fill:#f04153;fill-opacity:1;fill-rule:evenodd;stroke:none"
         d="m 5598.18,3859.11 c 39.57,0.22 71.83,-31.69 72.05,-71.26 0.22,-39.57 -31.68,-71.83 -71.26,-72.05 -39.57,-0.22 -71.83,31.68 -72.05,71.26 -0.22,39.56 31.68,71.83 71.26,72.05" /><path
         id="path154"
         style="fill:#f78e73;fill-opacity:1;fill-rule:evenodd;stroke:none"
         d="m 5334.32,4224.71 h 0.01 c 134.99,0.82 246.05,-118.96 246.81,-266.18 l 1.24,-243.26 c 0.74,-147.22 -109.09,-268.33 -244.08,-269.16 v 0 c -134.99,-0.82 -246.06,118.96 -246.82,266.17 l -1.24,243.27 c -0.75,147.22 109.08,268.34 244.08,269.16" /><path
         id="path156"
         style="fill:#f46b62;fill-opacity:1;fill-rule:evenodd;stroke:none"
         d="m 5571.59,4030.84 c 6.09,-23 9.42,-47.26 9.55,-72.31 l 1.24,-243.26 c 0.69,-135.37 -92.12,-248.66 -212.03,-266.66 -11.77,-1.23 -19.33,-1.98 -20.96,-2.15 h -0.11 c 134.05,13.27 162.43,189.36 162.43,242.46 0,53.13 0,7.59 0,137.89 0,130.29 -72.11,143.9 -121.45,143.9 -49.33,0 -213.15,0 -244.78,0 -31.63,0 -43.02,-29.1 -43.02,-29.1 l -12.2,9.27 -0.02,4.67 c -0.4,77.96 30.22,148.59 79.15,197.92 122.9,-24.01 327.28,-64.84 341.37,-73.65 7.66,-4.78 32.68,-25.3 60.83,-48.98" /><path
         id="path158"
         style="fill:#141215;fill-opacity:1;fill-rule:evenodd;stroke:none"
         d="m 5056.79,4028.68 44.09,-44.26 c 0,0 21.13,82.29 198.9,56.91 177.8,-25.38 -163.92,165.22 -202.62,144.41 -38.7,-20.81 -72.42,-82.01 -40.37,-157.06" /><path
         id="path160"
         style="fill:#1e1c32;fill-opacity:1;fill-rule:evenodd;stroke:none"
         d="m 5518.61,4024.7 c 0,0 -174.96,-19.19 -264,37.35 -89.04,56.54 -164.41,82.75 -187.25,52.03 -21.65,-29.14 65.42,-107.81 30.39,-241.63 -1.9,-7.26 -6.48,-131.03 -9.15,-138.62 -0.85,48.43 -16.36,172.17 -32.41,203.14 -47.89,92.44 -122.8,161.94 -25.51,300.57 59.73,85.08 161.17,124.95 208.28,81.9 153.56,-140.28 364.96,41.98 366.25,-190.46 0,0 113.89,-38.35 8.05,-271.38 -23.95,-0.13 -31.37,-18.26 -31.28,-33.6 l 0.94,-124.41 c -85.52,-0.01 -87.26,224.2 -64.31,325.11" /><path
         id="path162"
         style="fill:#dbd6dd;fill-opacity:1;fill-rule:evenodd;stroke:none"
         d="m 5443.25,979.5 h 495.1 c 23.93,0 43.52,19.578 43.52,43.53 v 851.17 c 0,23.93 -19.59,43.52 -43.52,43.52 h -495.1 c -23.93,0 -43.51,-19.59 -43.51,-43.52 v -851.17 c 0,-23.94 19.58,-43.53 43.51,-43.53" /><path
         id="path164"
         style="fill:#ffffff;fill-opacity:1;fill-rule:evenodd;stroke:none"
         d="m 5949.26,979.5 h 400.49 c 20.13,0 36.62,16.48 36.62,36.62 v 864.98 c 0,20.14 -16.49,36.62 -36.62,36.62 h -400.49 c -20.14,0 -36.62,-16.49 -36.62,-36.62 v -864.98 c 0,-20.132 16.47,-36.62 36.62,-36.62" /><path
         id="path166"
         style="fill:#ffffff;fill-opacity:1;fill-rule:evenodd;stroke:none"
         d="m 5300.66,1561.41 h 512.9 c 0,91.91 99.08,102.07 99.08,102.07 h -512.9 c 0,0 -99.08,-10.16 -99.08,-102.07" /><path
         id="path168"
         style="fill:#ce1c6c;fill-opacity:1;fill-rule:evenodd;stroke:none"
         d="m 5399.74,1130.5 h 530.8 c 15.76,0 28.65,-12.9 28.65,-28.65 V 915.629 c 0,-15.75 -12.89,-28.649 -28.65,-28.649 h -530.8 c -15.77,0 -28.66,12.891 -28.66,28.649 v 186.221 c 0,15.76 12.89,28.65 28.66,28.65" /><path
         id="path170"
         style="fill:#ee2289;fill-opacity:1;fill-rule:evenodd;stroke:none"
         d="m 5913.84,1130.5 h 116.57 c 2.63,-0.03 31.02,-1.11 46.94,-35.81 16.72,-36.41 14.93,-72.82 64.47,-72.82 46.91,0 -20.81,0 21.32,0 49.54,0 48.15,37.26 64.47,72.82 16.32,35.55 44.32,35.78 46.95,35.81 h 0.11 0.07 0.02 110.41 c 15.76,0 28.65,-12.9 28.65,-28.65 V 915.629 c 0,-15.75 -12.9,-28.649 -28.65,-28.649 h -471.33 c -15.76,0 -28.66,12.891 -28.66,28.649 v 186.221 c 0,15.76 12.9,28.65 28.66,28.65" /><path
         id="path172"
         style="fill:#ffffff;fill-opacity:1;fill-rule:evenodd;stroke:none"
         d="m 5300.66,1239.97 h 512.9 c 0,91.91 99.08,102.06 99.08,102.06 h -512.9 c 0,0 -99.08,-10.15 -99.08,-102.06" /><path
         id="path174"
         style="fill:#a1a0b4;fill-opacity:1;fill-rule:evenodd;stroke:none"
         d="M 6469.76,1393.21 H 6003.3 c 0,91.92 -90.66,102.06 -90.66,102.06 h 466.44 c 0,0 90.68,-10.14 90.68,-102.06" /><path
         id="path176"
         style="fill:#dbd6dd;fill-opacity:1;fill-rule:evenodd;stroke:none"
         d="m 5986.86,1815.8 h 357.53 c 8.68,0 15.77,-7.09 15.77,-15.76 v 0 c 0,-8.67 -7.09,-15.76 -15.77,-15.76 h -357.53 c -8.66,0 -15.75,7.09 -15.75,15.76 v 0 c 0,8.67 7.09,15.76 15.75,15.76" /><path
         id="path178"
         style="fill:#dbd6dd;fill-opacity:1;fill-rule:evenodd;stroke:none"
         d="m 5986.86,1642.13 h 357.53 c 8.68,0 15.77,-7.09 15.77,-15.76 v 0 c 0,-8.66 -7.09,-15.76 -15.77,-15.76 h -357.53 c -8.66,0 -15.75,7.09 -15.75,15.76 v 0 c 0,8.67 7.09,15.76 15.75,15.76" /><path
         id="path180"
         style="fill:#dbd6dd;fill-opacity:1;fill-rule:evenodd;stroke:none"
         d="m 5986.86,1279.47 h 357.53 c 8.68,0 15.77,-7.09 15.77,-15.76 v 0 c 0,-8.67 -7.09,-15.76 -15.77,-15.76 h -357.53 c -8.66,0 -15.75,7.09 -15.75,15.76 v 0 c 0,8.67 7.09,15.76 15.75,15.76" /><path
         id="path182"
         style="fill:#a1a0b4;fill-opacity:1;fill-rule:evenodd;stroke:none"
         d="m 5475.53,1828.57 h 345.37 c 8.67,0 15.76,-7.09 15.76,-15.76 v 0 c 0,-8.67 -7.09,-15.76 -15.76,-15.76 h -345.37 c -8.67,0 -15.76,7.09 -15.76,15.76 v 0 c 0,8.67 7.08,15.76 15.76,15.76" /><path
         id="path184"
         style="fill:#a1a0b4;fill-opacity:1;fill-rule:evenodd;stroke:none"
         d="m 5475.53,1437.41 h 345.37 c 8.67,0 15.76,-7.09 15.76,-15.76 v -0.01 c 0,-8.66 -7.09,-15.75 -15.76,-15.75 h -345.37 c -8.67,0 -15.76,7.09 -15.76,15.75 v 0.01 c 0,8.67 7.08,15.76 15.76,15.76" /><path
         id="path186"
         style="fill:#a1a0b4;fill-opacity:1;fill-rule:evenodd;stroke:none"
         d="m 5475.53,1187.12 h 345.37 c 8.67,0 15.76,-7.09 15.76,-15.76 v 0 c 0,-8.67 -7.09,-15.76 -15.76,-15.76 h -345.37 c -8.67,0 -15.76,7.09 -15.76,15.76 v 0 c 0,8.67 7.08,15.76 15.76,15.76" /><path
         id="path188"
         style="fill:#dbd6dd;fill-opacity:1;fill-rule:evenodd;stroke:none"
         d="m 5189.55,942.98 h 299.62 c 14.49,0 26.34,11.84 26.34,26.34 v 515.1 c 0,14.49 -11.85,26.34 -26.34,26.34 h -299.62 c -14.48,0 -26.34,-11.85 -26.34,-26.34 v -515.1 c 0,-14.5 11.86,-26.34 26.34,-26.34" /><path
         id="path190"
         style="fill:#ffffff;fill-opacity:1;fill-rule:evenodd;stroke:none"
         d="m 5495.77,942.98 h 242.37 c 12.19,0 22.15,9.969 22.15,22.161 V 1488.6 c 0,12.18 -9.97,22.16 -22.15,22.16 h -242.37 c -12.19,0 -22.16,-9.98 -22.16,-22.16 V 965.141 c 0,-12.192 9.97,-22.161 22.16,-22.161" /><path
         id="path192"
         style="fill:#ffffff;fill-opacity:1;fill-rule:evenodd;stroke:none"
         d="m 5103.26,1295.14 h 310.39 c 0,55.61 59.96,61.75 59.96,61.75 h -310.4 c 0,0 -59.95,-6.14 -59.95,-61.75" /><path
         id="path194"
         style="fill:#ce1c6c;fill-opacity:1;fill-rule:evenodd;stroke:none"
         d="m 5163.21,1034.35 h 321.23 c 9.54,0 17.35,-7.8 17.35,-17.34 V 904.332 c 0,-9.543 -7.81,-17.352 -17.35,-17.352 h -321.23 c -9.53,0 -17.33,7.809 -17.33,17.352 v 112.678 c 0,9.54 7.8,17.34 17.33,17.34" /><path
         id="path196"
         style="fill:#ee2289;fill-opacity:1;fill-rule:evenodd;stroke:none"
         d="m 5474.34,1034.35 h 70.43 v 0 h 0.11 c 1.58,-0.01 18.78,-0.67 28.42,-21.67 10.11,-22.039 9.03,-44.071 39,-44.071 28.39,0 -12.58,0 12.91,0 29.97,0 29.14,22.551 39.02,44.071 9.86,21.52 26.82,21.66 28.41,21.67 h 0.06 0.04 0.01 66.83 c 9.53,0 17.33,-7.8 17.33,-17.34 V 904.332 c 0,-9.543 -7.8,-17.352 -17.33,-17.352 h -285.24 c -9.54,0 -17.35,7.809 -17.35,17.352 v 112.678 c 0,9.54 7.81,17.34 17.35,17.34" /><path
         id="path198"
         style="fill:#ffffff;fill-opacity:1;fill-rule:evenodd;stroke:none"
         d="m 5103.26,1100.61 h 310.39 c 0,55.62 59.96,61.75 59.96,61.75 h -310.4 c 0,0 -59.95,-6.13 -59.95,-61.75" /><path
         id="path200"
         style="fill:#a1a0b4;fill-opacity:1;fill-rule:evenodd;stroke:none"
         d="m 5810.76,1193.34 h -282.28 c 0,55.62 -54.87,61.76 -54.87,61.76 h 282.29 c 0,0 54.86,-6.14 54.86,-61.76" /><path
         id="path202"
         style="fill:#dbd6dd;fill-opacity:1;fill-rule:evenodd;stroke:none"
         d="m 5518.53,1449.08 h 216.36 c 5.26,0 9.54,-4.29 9.54,-9.54 v 0 c 0,-5.24 -4.28,-9.54 -9.54,-9.54 h -216.36 c -5.24,0 -9.54,4.3 -9.54,9.54 v 0 c 0,5.25 4.3,9.54 9.54,9.54" /><path
         id="path204"
         style="fill:#dbd6dd;fill-opacity:1;fill-rule:evenodd;stroke:none"
         d="m 5518.53,1343.97 h 216.36 c 5.26,0 9.54,-4.28 9.54,-9.53 v 0 c 0,-5.24 -4.28,-9.54 -9.54,-9.54 h -216.36 c -5.24,0 -9.54,4.29 -9.54,9.54 v 0 c 0,5.26 4.3,9.53 9.54,9.53" /><path
         id="path206"
         style="fill:#dbd6dd;fill-opacity:1;fill-rule:evenodd;stroke:none"
         d="m 5518.53,1124.51 h 216.36 c 5.26,0 9.54,-4.3 9.54,-9.54 v 0 c 0,-5.24 -4.28,-9.54 -9.54,-9.54 h -216.36 c -5.24,0 -9.54,4.3 -9.54,9.54 v 0 c 0,5.24 4.3,9.54 9.54,9.54" /><path
         id="path208"
         style="fill:#a1a0b4;fill-opacity:1;fill-rule:evenodd;stroke:none"
         d="m 5209.09,1456.82 h 209.01 c 5.24,0 9.53,-4.3 9.53,-9.54 v -0.01 c 0,-5.24 -4.29,-9.54 -9.53,-9.54 h -209.01 c -5.25,0 -9.54,4.29 -9.54,9.54 v 0.01 c 0,5.24 4.29,9.54 9.54,9.54" /><path
         id="path210"
         style="fill:#a1a0b4;fill-opacity:1;fill-rule:evenodd;stroke:none"
         d="m 5209.09,1220.09 h 209.01 c 5.24,0 9.53,-4.3 9.53,-9.53 v -0.01 c 0,-5.25 -4.29,-9.54 -9.53,-9.54 h -209.01 c -5.25,0 -9.54,4.29 -9.54,9.54 v 0.01 c 0,5.23 4.29,9.53 9.54,9.53" /><path
         id="path212"
         style="fill:#a1a0b4;fill-opacity:1;fill-rule:evenodd;stroke:none"
         d="m 5209.09,1068.62 h 209.01 c 5.24,0 9.53,-4.29 9.53,-9.54 v 0 c 0,-5.24 -4.29,-9.54 -9.53,-9.54 h -209.01 c -5.25,0 -9.54,4.3 -9.54,9.54 v 0 c 0,5.25 4.29,9.54 9.54,9.54" /><path
         id="path214"
         style="fill:#1e1c32;fill-opacity:1;fill-rule:evenodd;stroke:none"
         d="m 2229.88,2260.81 -390.23,1.89 -0.06,-23.32 390.23,-1.88 z m -399.99,21.48 409.79,-1.95 c 5.4,0 9.78,-4.38 9.78,-9.77 l -0.09,-42.87 c 0,-5.41 -4.38,-9.79 -9.79,-9.79 l -409.79,1.94 c -5.4,-0.01 -9.77,4.38 -9.78,9.78 l 0.1,42.87 c 0,5.4 4.38,9.78 9.78,9.79 v 0" /><path
         id="path216"
         style="fill:#1e1c32;fill-opacity:1;fill-rule:evenodd;stroke:none"
         d="m 1841.18,2266.72 -528.5,-602.24 17.52,-15.38 528.5,602.24 z m -549.68,-596.7 541.41,616.93 c 3.55,4.07 9.73,4.49 13.8,0.94 l 32.23,-28.28 c 4.06,-3.55 4.48,-9.73 0.93,-13.8 l -541.4,-616.94 c -3.55,-4.07 -9.73,-4.49 -13.8,-0.93 l -32.23,28.28 c -4.07,3.55 -4.48,9.73 -0.94,13.8 v 0" /><path
         id="path218"
         style="fill:#38385f;fill-opacity:1;fill-rule:evenodd;stroke:none"
         d="m 1835.38,2304.39 c 29.89,3.8 57.21,-17.35 61,-47.25 3.8,-29.89 -17.37,-57.21 -47.26,-61 -29.89,-3.8 -57.21,17.37 -61,47.26 -3.79,29.89 17.37,57.21 47.26,60.99" /><path
         id="path220"
         style="fill:#1e1c32;fill-opacity:1;fill-rule:evenodd;stroke:none"
         d="m 1684.64,957.621 -371.6,709.859 20.65,10.81 371.61,-709.86 z M 1291.16,1667.1 1671.84,939.898 c 2.49,-4.789 8.4,-6.648 13.19,-4.16 l 37.98,19.883 c 4.79,2.5 6.65,8.399 4.16,13.199 l -380.68,727.19 c -2.49,4.79 -8.39,6.65 -13.18,4.16 l -37.99,-19.89 c -4.79,-2.49 -6.65,-8.4 -4.16,-13.18 v 0" /><path
         id="path222"
         style="fill:#38385f;fill-opacity:1;fill-rule:evenodd;stroke:none"
         d="m 1670.13,922.359 c 28.15,-10.73 59.68,3.391 70.42,31.551 10.73,28.16 -3.39,59.68 -31.55,70.43 -28.15,10.73 -59.68,-3.39 -70.42,-31.551 -10.73,-28.16 3.39,-59.687 31.55,-70.43" /><path
         id="path224"
         style="fill:#38385f;fill-opacity:1;fill-rule:evenodd;stroke:none"
         d="m 1322.26,1719.69 c 29.89,3.8 57.2,-17.37 61,-47.26 3.79,-29.89 -17.37,-57.21 -47.26,-61 -29.9,-3.79 -57.21,17.36 -61,47.26 -3.79,29.89 17.36,57.2 47.26,61" /><path
         id="path226"
         style="fill:#38385f;fill-opacity:1;fill-rule:evenodd;stroke:none"
         d="m 1199.37,830.742 h 760.54 c 37.9,0 68.91,31.02 68.91,68.918 v 0.012 c 0,37.898 -31.01,68.91 -68.91,68.91 h -760.54 c -37.91,0 -68.92,-31.012 -68.92,-68.91 v -0.012 c 0,-37.898 31.01,-68.918 68.92,-68.918" /><path
         id="path228"
         style="fill:#1e1c32;fill-opacity:1;fill-rule:evenodd;stroke:none"
         d="m 1470.33,830.742 h 760.54 c 37.9,0 68.92,31.02 68.92,68.918 v 0.012 c 0,37.898 -31.02,68.91 -68.92,68.91 h -760.54 c -37.91,0 -68.92,-31.012 -68.92,-68.91 v -0.012 c 0,-37.898 31.01,-68.918 68.92,-68.918" /><path
         id="path230"
         style="fill:#ffffff;fill-opacity:1;fill-rule:evenodd;stroke:none"
         d="m 2151.5,2142.39 h 200.45 c 58.16,0 105.74,47.58 105.74,105.73 h -411.92 c 0,-58.15 47.57,-105.73 105.73,-105.73" /><path
         id="path232"
         style="fill:#cbede9;fill-opacity:1;fill-rule:evenodd;stroke:none"
         d="m 2155.29,2163.49 h 120.44 c 34.94,0 63.53,28.59 63.53,63.53 h -247.5 c 0,-34.94 28.59,-63.53 63.53,-63.53" /><path
         id="path234"
         style="fill:#38385f;fill-opacity:1;fill-rule:evenodd;stroke:none"
         d="m 2084.09,2296.64 h 335.28 c 44.48,0 80.87,-36.39 80.87,-80.87 h -497.02 c 0,44.48 36.38,80.87 80.87,80.87" /><path
         id="path236"
         style="fill:#141215;fill-opacity:1;fill-rule:evenodd;stroke:none"
         d="m 2084.09,2296.64 h 153.31 c 44.47,0 80.87,-36.39 80.87,-80.87 h -315.05 c 0,44.48 36.38,80.87 80.87,80.87" /><path
         id="path238"
         style="fill:#1e1c32;fill-opacity:1;fill-rule:evenodd;stroke:none"
         d="m 6130.88,3800.91 c -2.36,-3.32 -6.98,-4.1 -10.31,-1.73 -3.33,2.36 -4.11,6.98 -1.74,10.31 28.96,40.48 67.32,73.79 111.87,96.71 42.95,22.1 91.65,34.59 143.23,34.59 86.55,0 164.92,-35.09 221.65,-91.82 56.71,-56.72 91.8,-135.08 91.8,-221.65 0,-86.55 -35.09,-164.92 -91.8,-221.64 -56.73,-56.72 -135.1,-91.81 -221.65,-91.81 -72.72,0 -139.68,24.79 -192.89,66.39 -54.33,42.48 -94.3,102.49 -111.39,171.52 -0.97,3.96 1.45,7.98 5.42,8.95 3.95,0.97 7.97,-1.45 8.95,-5.42 16.27,-65.76 54.36,-122.94 106.12,-163.41 50.65,-39.6 114.45,-63.2 183.79,-63.2 82.46,0 157.11,33.42 211.15,87.47 54.04,54.03 87.47,128.69 87.47,211.15 0,82.47 -33.43,157.13 -87.47,211.17 -54.04,54.03 -128.69,87.47 -211.15,87.47 -49.18,0 -95.58,-11.88 -136.45,-32.91 -42.47,-21.85 -79.02,-53.59 -106.6,-92.14" /><path
         id="path240"
         style="fill:#1e1c32;fill-opacity:1;fill-rule:evenodd;stroke:none"
         d="m 6459.39,3684.48 c 17.65,65.33 50.68,90.75 54.1,93.24 2.01,1.61 4.88,1.89 7.23,0.51 26.66,-15.83 42.26,-35.35 50.4,-54.41 11.31,-26.45 8.12,-52.25 0.18,-66.4 l -128.55,-222.64 c -8.12,-14.07 -29.01,-29.99 -57.84,-33.46 -20.49,-2.47 -45.12,1.25 -72.07,16.33 -2.23,1.14 -3.67,3.54 -3.46,6.18 0,0.12 3.39,43.24 53.54,93.69 1.98,2.19 5.28,2.78 7.92,1.23 0.13,-0.06 42.46,-24.5 55.45,-2.63 l 65.96,114.27 c 12.3,21.29 -26.24,44.77 -29.64,46.79 -2.59,1.35 -4,4.36 -3.22,7.3 z m 58.55,80.49 c -8.3,-7.21 -30.78,-30.32 -44.96,-79.29 12.3,-8.2 46.21,-34.13 30.3,-61.68 l -66.16,-114.53 c -16.09,-26.77 -55.05,-10.57 -68.23,-4.07 -35.39,-36.84 -44.13,-67.9 -46.19,-78.58 22.85,-11.95 43.51,-14.9 60.72,-12.83 24.45,2.95 41.77,15.83 48.31,27.15 l 128.48,222.53 c 6.41,11.42 8.77,32.71 -0.82,55.17 -6.8,15.92 -19.68,32.32 -41.45,46.13 v 0" /><g
         transform="scale(10)"
         id="g242"><text
           id="text246"
           style="font-variant:normal;font-weight:800;font-size:24.52549934px;font-family:'Open Sans';-inkscape-font-specification:OpenSans-Extrabold;writing-mode:lr-tb;fill:#1e1c32;fill-opacity:1;fill-rule:nonzero;stroke:none"
           transform="matrix(1,0,0,-1,611.726,357.939)"><tspan
             id="tspan244"
             y="0"
             x="0 14.370136">24</tspan></text>
</g><path
         id="path248"
         style="fill:#adbee3;fill-opacity:1;fill-rule:evenodd;stroke:none"
         d="m 4387.64,4143.53 h 427.01 c 36.6,0 66.54,-29.94 66.54,-66.54 v -176.97 -20.3 -174.68 c 0,-3.07 -1.75,-5.68 -4.58,-6.86 -2.83,-1.18 -5.93,-0.56 -8.09,1.61 l -113.4,113.39 h -367.48 c -36.6,0 -66.54,29.94 -66.54,66.54 v 197.27 c 0,36.6 29.94,66.54 66.54,66.54" /><path
         id="path250"
         style="fill:#ffffff;fill-opacity:1;fill-rule:evenodd;stroke:none"
         d="m 4764.2,4169.2 h -427.02 c -15.86,0 -30.31,-6.5 -40.77,-16.97 -10.47,-10.47 -16.98,-24.91 -16.98,-40.78 v -197.26 c 0,-15.87 6.51,-30.31 16.98,-40.78 10.46,-10.47 24.91,-16.97 40.77,-16.97 h 371.13 l 113.63,-113.65 v 368.66 c 0,15.87 -6.49,30.31 -16.96,40.78 -10.48,10.47 -24.91,16.97 -40.78,16.97 z m -427.02,17.59 h 427.02 c 20.72,0 39.56,-8.47 53.21,-22.13 13.64,-13.65 22.12,-32.49 22.12,-53.21 v -371.94 c 0,-3.28 -0.98,-6.39 -2.74,-9.02 -1.74,-2.62 -4.23,-4.7 -7.27,-5.96 h -0.03 c -3.06,-1.26 -6.28,-1.57 -9.31,-0.96 -3.12,0.61 -6,2.12 -8.34,4.46 l -110.81,110.82 h -363.85 c -20.73,0 -39.55,8.48 -53.22,22.12 -13.64,13.65 -22.1,32.49 -22.1,53.22 v 197.26 c 0,20.73 8.46,39.57 22.1,53.21 13.67,13.66 32.49,22.13 53.22,22.13 v 0" /><path
         id="path252"
         style="fill:#ffffff;fill-opacity:1;fill-rule:evenodd;stroke:none"
         d="m 4333.63,4113.24 c -2.65,0 -4.81,2.15 -4.81,4.81 0,2.65 2.16,4.81 4.81,4.81 h 434.11 c 2.66,0 4.82,-2.16 4.82,-4.81 0,-2.66 -2.16,-4.81 -4.82,-4.81 h -434.11" /><path
         id="path254"
         style="fill:#ffffff;fill-opacity:1;fill-rule:evenodd;stroke:none"
         d="m 4440.84,4066.32 c -2.66,0 -4.81,2.16 -4.81,4.82 0,2.65 2.15,4.8 4.81,4.8 h 326.9 c 2.66,0 4.82,-2.15 4.82,-4.8 0,-2.66 -2.16,-4.82 -4.82,-4.82 z m -107.21,0 c -2.65,0 -4.81,2.16 -4.81,4.82 0,2.65 2.16,4.8 4.81,4.8 h 45.99 c 2.66,0 4.8,-2.15 4.8,-4.8 0,-2.66 -2.14,-4.82 -4.8,-4.82 h -45.99 v 0" /><path
         id="path256"
         style="fill:#ffffff;fill-opacity:1;fill-rule:evenodd;stroke:none"
         d="m 4333.63,4019.41 c -2.65,0 -4.81,2.15 -4.81,4.81 0,2.66 2.16,4.81 4.81,4.81 h 434.11 c 2.66,0 4.82,-2.15 4.82,-4.81 0,-2.66 -2.16,-4.81 -4.82,-4.81 h -434.11" /><path
         id="path258"
         style="fill:#ffffff;fill-opacity:1;fill-rule:evenodd;stroke:none"
         d="m 4454.36,3955.81 c -2.65,0 -4.81,2.16 -4.81,4.81 0,2.66 2.16,4.81 4.81,4.81 h 313.38 c 2.66,0 4.82,-2.15 4.82,-4.81 0,-2.65 -2.16,-4.81 -4.82,-4.81 h -313.38" /><path
         id="path260"
         style="fill:#ffffff;fill-opacity:1;fill-rule:evenodd;stroke:none"
         d="m 4594.3,3904.92 c -2.65,0 -4.81,2.16 -4.81,4.82 0,2.65 2.16,4.8 4.81,4.8 h 173.44 c 2.66,0 4.82,-2.15 4.82,-4.8 0,-2.66 -2.16,-4.82 -4.82,-4.82 H 4594.3" /><path
         id="path262"
         style="fill:#ffffff;fill-opacity:1;fill-rule:evenodd;stroke:none"
         d="m 4494.91,3904.92 c -2.65,0 -4.81,2.16 -4.81,4.82 0,2.65 2.16,4.8 4.81,4.8 h 62.01 c 2.66,0 4.82,-2.15 4.82,-4.8 0,-2.66 -2.16,-4.82 -4.82,-4.82 h -62.01" /><path
         id="path264"
         style="fill:#adbee3;fill-opacity:1;fill-rule:evenodd;stroke:none"
         d="m 6852.59,837.23 c 0,6.051 -4.91,10.95 -10.97,10.95 -6.05,0 -10.96,-4.899 -10.96,-10.95 v -25.769 h -25.76 c -6.06,0 -10.97,-4.922 -10.97,-10.969 0,-6.051 4.91,-10.953 10.97,-10.953 h 25.76 v -25.777 c 0,-6.051 4.91,-10.961 10.96,-10.961 6.06,0 10.97,4.91 10.97,10.961 v 25.777 h 25.77 c 6.05,0 10.96,4.902 10.96,10.953 0,6.047 -4.91,10.969 -10.96,10.969 h -25.77 v 25.769" /><path
         id="path266"
         style="fill:#1e75bc;fill-opacity:1;fill-rule:evenodd;stroke:none"
         d="m 2573.79,1010.66 h -371.31 c -15.27,0 -29.15,-6.24 -39.2,-16.289 -10.06,-10.062 -16.3,-23.941 -16.3,-39.199 0,-15.281 6.24,-29.16 16.3,-39.203 10.05,-10.059 23.93,-16.297 39.2,-16.297 h 371.31 c 15.27,0 29.15,6.238 39.2,16.297 10.06,10.043 16.3,23.922 16.3,39.203 0,15.258 -6.24,29.137 -16.3,39.199 -10.05,10.049 -23.93,16.289 -39.2,16.289" /><path
         id="path268"
         style="fill:#ffffff;fill-opacity:1;fill-rule:evenodd;stroke:none"
         d="m 1743.23,1004.19 h 474.84 c 26.96,0 49.03,-22.061 49.03,-49.018 v 0 c 0,-26.981 -22.07,-49.051 -49.03,-49.051 h -474.84 v 98.069" /><path
         id="path270"
         style="fill:#2a4986;fill-opacity:1;fill-rule:evenodd;stroke:none"
         d="m 1743.23,1010.66 c -3.57,0 -6.47,-2.9 -6.47,-6.47 0,-3.57 2.9,-6.46 6.47,-6.46 h 474.84 c 11.7,0 22.34,-4.789 30.05,-12.511 7.72,-7.719 12.51,-18.348 12.51,-30.047 0,-11.711 -4.79,-22.363 -12.51,-30.07 -7.71,-7.723 -18.35,-12.5 -30.05,-12.5 h -474.84 c -3.57,0 -6.47,-2.903 -6.47,-6.481 0,-3.562 2.9,-6.449 6.47,-6.449 h 474.84 c 15.26,0 29.14,6.238 39.2,16.297 10.05,10.043 16.3,23.922 16.3,39.203 0,15.258 -6.25,29.137 -16.3,39.199 -10.06,10.049 -23.94,16.289 -39.2,16.289 h -474.84" /><path
         id="path272"
         style="fill:#2a4986;fill-opacity:1;fill-rule:evenodd;stroke:none"
         d="m 2556.69,955.172 c 0,15.258 -6.24,29.137 -16.3,39.199 -10.05,10.049 -23.94,16.289 -39.2,16.289 h 48.27 c 15.27,0 29.15,-6.24 39.2,-16.289 10.06,-10.062 16.31,-23.941 16.31,-39.199 0,-15.281 -6.25,-29.16 -16.31,-39.203 -10.05,-10.059 -23.93,-16.297 -39.2,-16.297 h -48.27 c 15.26,0 29.15,6.238 39.2,16.297 10.06,10.043 16.3,23.922 16.3,39.203" /><path
         id="path274"
         style="fill:#2a4986;fill-opacity:1;fill-rule:evenodd;stroke:none"
         d="m 2486.75,955.172 c 0,15.258 -6.25,29.137 -16.3,39.199 -10.05,10.049 -23.93,16.289 -39.21,16.289 h 48.28 c 15.27,0 29.15,-6.24 39.21,-16.289 10.05,-10.062 16.29,-23.941 16.29,-39.199 0,-15.281 -6.24,-29.16 -16.29,-39.203 -10.06,-10.059 -23.94,-16.297 -39.21,-16.297 h -48.28 c 15.28,0 29.16,6.238 39.21,16.297 10.05,10.043 16.3,23.922 16.3,39.203" /><path
         id="path276"
         style="fill:#ee2289;fill-opacity:1;fill-rule:evenodd;stroke:none"
         d="M 1840.85,1107.86 H 2166 c 13.37,0 25.51,-5.47 34.32,-14.28 8.81,-8.79 14.27,-20.95 14.27,-34.32 0,-13.37 -5.46,-25.52 -14.27,-34.33 -8.81,-8.81 -20.95,-14.27 -34.32,-14.27 h -325.15 c -13.37,0 -25.52,5.46 -34.32,14.27 -8.81,8.81 -14.28,20.96 -14.28,34.33 0,13.37 5.47,25.53 14.28,34.32 8.8,8.81 20.95,14.28 34.32,14.28" /><path
         id="path278"
         style="fill:#ffffff;fill-opacity:1;fill-rule:evenodd;stroke:none"
         d="m 2568.14,1102.2 h -415.8 c -23.6,0 -42.93,-19.32 -42.93,-42.94 v 0 c 0,-23.63 19.33,-42.94 42.93,-42.94 h 415.8 v 85.88" /><path
         id="path280"
         style="fill:#ce1c6c;fill-opacity:1;fill-rule:evenodd;stroke:none"
         d="m 2568.14,1107.86 c 3.12,0 5.66,-2.54 5.66,-5.66 0,-3.13 -2.54,-5.67 -5.66,-5.67 h -415.8 c -10.24,0 -19.56,-4.19 -26.31,-10.94 -6.76,-6.76 -10.96,-16.09 -10.96,-26.33 0,-10.25 4.2,-19.57 10.96,-26.33 6.75,-6.75 16.07,-10.95 26.31,-10.95 h 415.8 c 3.12,0 5.66,-2.54 5.66,-5.66 0,-3.13 -2.54,-5.66 -5.66,-5.66 h -415.8 c -13.37,0 -25.52,5.46 -34.32,14.27 -8.81,8.81 -14.28,20.96 -14.28,34.33 0,13.37 5.47,25.53 14.28,34.32 8.8,8.81 20.95,14.28 34.32,14.28 h 415.8" /><path
         id="path282"
         style="fill:#ce1c6c;fill-opacity:1;fill-rule:evenodd;stroke:none"
         d="m 1855.83,1059.26 c 0,13.37 5.46,25.53 14.27,34.32 8.81,8.81 20.96,14.28 34.33,14.28 h -42.28 c -13.36,0 -25.52,-5.47 -34.32,-14.28 -8.81,-8.79 -14.28,-20.95 -14.28,-34.32 0,-13.37 5.47,-25.52 14.28,-34.33 8.8,-8.81 20.96,-14.27 34.32,-14.27 h 42.28 c -13.37,0 -25.52,5.46 -34.33,14.27 -8.81,8.81 -14.27,20.96 -14.27,34.33" /><path
         id="path284"
         style="fill:#ce1c6c;fill-opacity:1;fill-rule:evenodd;stroke:none"
         d="m 1917.07,1059.26 c 0,13.37 5.47,25.53 14.27,34.32 8.81,8.81 20.96,14.28 34.33,14.28 h -42.27 c -13.37,0 -25.52,-5.47 -34.33,-14.28 -8.8,-8.79 -14.27,-20.95 -14.27,-34.32 0,-13.37 5.47,-25.52 14.27,-34.33 8.81,-8.81 20.96,-14.27 34.33,-14.27 h 42.27 c -13.37,0 -25.52,5.46 -34.33,14.27 -8.8,8.81 -14.27,20.96 -14.27,34.33" /><path
         id="path286"
         style="fill:#9e9caf;fill-opacity:1;fill-rule:evenodd;stroke:none"
         d="M 4776.76,886.98 H 3179.83 c -27.89,0 -52.08,22.821 -53.75,50.731 v 0 c -1.67,27.898 19.79,50.711 47.68,50.711 h 1596.92 c 27.89,0 52.08,-22.813 53.75,-50.711 v 0 c 1.67,-27.91 -19.78,-50.731 -47.67,-50.731" /><path
         id="path288"
         style="fill:#8b899c;fill-opacity:1;fill-rule:evenodd;stroke:none"
         d="M 4776.76,886.98 H 3179.84 c -18.07,0 -34.59,9.579 -44.44,23.918 8.13,14.321 23.51,23.903 41.57,23.903 h 1596.92 c 18.06,0 34.58,-9.582 44.43,-23.903 -8.13,-14.339 -23.5,-23.918 -41.56,-23.918" /><path
         id="path290"
         style="fill:#8b899c;fill-opacity:1;fill-rule:evenodd;stroke:none"
         d="M 4810.11,988.422 H 3532.84 c -36.5,0 -64.47,29.858 -62.16,66.358 l 52.29,827.32 c 2.31,36.49 34.05,66.35 70.55,66.35 h 1277.26 c 36.5,0 64.47,-29.86 62.16,-66.35 l -52.29,-827.32 c -2.3,-36.5 -34.04,-66.358 -70.54,-66.358" /><path
         id="path292"
         style="fill:#ffffff;fill-opacity:1;fill-rule:evenodd;stroke:none"
         d="m 4810.12,988.422 h -1239.6 c -36.5,0 -64.47,29.858 -62.16,66.358 l 52.29,827.32 c 2.3,36.49 34.05,66.35 70.54,66.35 h 1239.6 c 36.49,0 64.45,-29.86 62.15,-66.35 l -52.29,-827.32 c -2.3,-36.5 -34.04,-66.358 -70.53,-66.358" /><path
         id="path294"
         style="fill:#ece5e8;fill-opacity:1;fill-rule:evenodd;stroke:none"
         d="m 3719.01,1948.45 1153.5,-921.95 c 4.61,8.6 7.51,18.18 8.14,28.28 l 8.14,128.65 -957.18,765.02 z M 4742.57,988.422 h -127.56 l -1057.43,845.158 3.07,48.52 c 0.92,14.49 6.48,27.94 15.14,38.88 L 4742.57,988.422 v 0" /><path
         id="path296"
         style="fill:#ffffff;fill-opacity:1;fill-rule:evenodd;stroke:none"
         d="m 3470.05,886.98 h -290.21 c -27.9,0 -52.09,22.821 -53.76,50.731 v 0 c -1.67,27.898 19.79,50.711 47.68,50.711 h 290.22 c 27.9,0 52.08,-22.813 53.75,-50.711 v 0 c 1.67,-27.91 -19.78,-50.731 -47.68,-50.731" /><path
         id="path298"
         style="fill:#cbc1cb;fill-opacity:1;fill-rule:evenodd;stroke:none"
         d="M 4797.56,963.07 H 3468.72 c -13.94,0 -26.03,11.399 -26.87,25.352 v 0.008 c -0.83,13.95 9.89,25.36 23.83,25.36 h 1328.84 c 13.95,0 26.05,-11.41 26.88,-25.36 v -0.008 c 0.83,-13.953 -9.9,-25.352 -23.84,-25.352" /><path
         id="path300"
         style="fill:#1e1c32;fill-opacity:1;fill-rule:evenodd;stroke:none"
         d="m 3285.27,2013.54 c -9.8,48.75 -7.35,76.04 2.03,122.3 l -209.4,17.68 291.46,127.73 c 0,0 61.85,75.9 91,150.44 29.16,74.55 -49.91,264.11 -79.63,311.15 -29.72,47.02 -91.45,39.99 -132.11,14.54 0,0 -61.05,92 -133.93,98.15 -72.88,6.15 -304.53,-15.2 -371.82,-185.2 -67.29,-170 40.97,-339.92 -67.4,-514.8 0,0 -9.54,-22.12 4.52,-40.75 14.07,-18.65 184.94,-217.78 574.37,-137.54 0,0 31.03,7.2 30.91,36.3 v 0" /><path
         id="path302"
         style="fill:#16131a;fill-opacity:1;fill-rule:evenodd;stroke:none"
         d="m 3010.83,1961.42 c 21.45,234.17 36.57,437.7 36.57,437.7 l -19.87,65.99 c 0,0 -179.32,-144.93 -306.64,7.55 6.05,-104.61 21,-209.95 -45.42,-317.13 0,0 -9.54,-22.12 4.52,-40.75 l 0.57,-0.76 0.21,-0.25 0.49,-0.63 0.52,-0.63 0.31,-0.4 0.92,-1.1 0.06,-0.06 1.1,-1.31 0.32,-0.37 0.92,-1.06 0.78,-0.9 0.6,-0.66 1.34,-1.5 0.18,-0.18 1.64,-1.79 0.37,-0.4 1.43,-1.51 0.99,-1.06 0.93,-0.95 0.67,-0.69 1.4,-1.42 2.2,-2.22 1.53,-1.48 1.15,-1.15 c 37.26,-36.04 124.05,-102.7 270.28,-125.84 l 0.43,-0.06 c 12.68,-2.01 25.81,-3.68 39.39,-4.97 l 0.11,-0.01" /><path
         id="path304"
         style="fill:#16131a;fill-opacity:1;fill-rule:evenodd;stroke:none"
         d="m 3285.27,2013.54 c -13.31,66.24 -4,92.87 14.56,181.36 l -333.23,52.44 -145.62,-28.22 c 0,0 -12.72,-81.59 -50.78,-180.31 88.65,-54.88 245.27,-110.79 484.16,-61.57 0,0 31.03,7.2 30.91,36.3 v 0" /><path
         id="path306"
         style="fill:#ee2289;fill-opacity:1;fill-rule:evenodd;stroke:none"
         d="m 2843.16,1999.14 c 92.21,-28.93 218.27,-63.51 326.96,-116.94 7.51,-3.7 -7.8,-32.63 -0.83,-36.5 10.62,-5.88 28.29,-19.58 47.69,-38.77 50.77,-50.2 154.07,-443.09 144.85,-482.23 -14.84,-62.97 -145.35,-235.96 -145.35,-235.96 -25.92,-50.06 -58.05,-122.97 -89.61,-201.76 h -648.22 c 45.15,146.77 61.96,246.19 63.15,335.8 h 0.01 c 34.61,304.63 -129.18,370.9 -129.18,370.9 l 169.64,399.19 c 65.99,23.37 197.6,14.58 197.6,14.58 34.79,0.03 32.14,1.47 63.29,-8.31" /><path
         id="path308"
         style="fill:#ce1c6c;fill-opacity:1;fill-rule:evenodd;stroke:none"
         d="m 3126.88,886.98 h -91.49 c 17.05,45.629 96.36,261.4 113.32,307.45 -77.1,13.42 -183.24,31.82 -201.95,36.27 -18.71,4.47 -90.37,-36.49 -90.37,-36.49 l 7.96,46.57 -76.94,-77.48 131.55,245.66 c 0,0 214.66,-48.48 260.27,-56.79 45.6,-8.3 17.79,-1.98 26.27,-1.31 25.36,71.35 -16.17,91.31 -11.24,125.84 4.93,34.53 6.39,369.43 6.39,369.43 27.74,-14.37 40.27,-45.61 55.97,-94.9 10.32,-32.43 65.13,-245.58 87.82,-371.65 5.4,-29.99 9.67,-52.43 12.37,-70.33 -50.86,-129.67 -165.04,-260.23 -229.93,-422.27" /><path
         id="path310"
         style="fill:#f04153;fill-opacity:1;fill-rule:evenodd;stroke:none"
         d="m 3003.24,2367.13 -32.45,-97.5 c 0,0 -49.09,-230.08 -60.44,-259.92 -3.95,-10.35 -16.93,-13.52 -36.89,-13.04 28.72,-41.13 84.5,-103.88 165.13,-119.16 51.49,-9.76 87.49,-0.15 111.94,14.27 -17.21,9.09 -33.68,19.89 -33.61,28.76 0.7,78.52 14.19,216.72 56.75,242.27 48.73,29.27 -170.43,204.32 -170.43,204.32" /><path
         id="path312"
         style="fill:#ffffff;fill-opacity:1;fill-rule:evenodd;stroke:none"
         d="m 2889.62,1997.33 c -11.56,-1.53 -27.33,-0.44 -46.46,1.81 19.84,-28.59 51.85,-60.71 103.21,-93.25 127.14,-80.56 188.36,-36.66 207.72,-15.96 -11.89,6.1 -23.96,13.13 -30.99,19.89 v 0 c -118.65,-57.97 -233.47,87.51 -233.47,87.51 h -0.01" /><path
         id="path314"
         style="fill:#272646;fill-opacity:1;fill-rule:evenodd;stroke:none"
         d="m 3164.97,1884.69 c 0,0 50.7,-510.26 44.54,-553.35 -6.16,-43.11 -86.76,-255.43 -157.42,-444.36 h 121.49 c 24,46.239 42.34,82.352 45.67,91.051 2.17,5.617 10.56,21.938 22.11,43.319 20.76,38.44 51.77,93.24 75.14,131.61 74.49,122.28 74.29,93.73 48.51,236.97 -22.69,126.07 -92.32,359.34 -102.65,391.77 -15.69,49.3 -84.24,106.58 -97.39,102.99" /><path
         id="path316"
         style="fill:#1e1c32;fill-opacity:1;fill-rule:evenodd;stroke:none"
         d="m 3157.84,1174.5 c -16.71,-46.68 -36.13,-99.84 -56.27,-154.41 36.94,-3.2 66.44,-6.9 76.89,-11 36.94,-14.508 40.8,-31.059 40.8,-31.059 2.16,5.617 10.55,21.938 22.1,43.319 20.77,38.44 51.77,93.24 75.14,131.61 22.41,36.79 38.04,59.91 48.27,78.17 -14.34,-12.58 -37.19,-31.57 -48.32,-34.94 -13.45,-4.08 -116.99,-16.71 -158.61,-21.69" /><path
         id="path318"
         style="fill:#272646;fill-opacity:1;fill-rule:evenodd;stroke:none"
         d="m 2824.07,2010 c 0,0 93.03,-450.68 105.78,-581.69 12.76,-131 -28.22,-224.77 -74.31,-323.2 -15.54,-33.18 -65.36,-117.848 -126.72,-218.13 h -286.44 l 30.64,707.95 -82.14,19.03 c 4.88,35.57 8.87,65.02 11.6,85.66 l 161.73,285.94 c 0,0 60.96,49.45 259.86,24.44" /><path
         id="path320"
         style="fill:#1e1c32;fill-opacity:1;fill-rule:evenodd;stroke:none"
         d="m 2649.93,1793.08 c -45.7,-183.53 -13.97,-259.64 -13.97,-259.64 l 24.48,114.2 c 0,0 23.15,-168.57 48.91,-190.06 12.79,-10.68 165.05,-39.87 222.11,-50.51 3.94,-71.51 -8.29,-131.96 -28.04,-188.82 -40.95,-4.21 -287.33,30.5 -299.1,-49.1 -5.87,-39.7 -4.55,88.03 -4.55,88.03 l -14.58,-370.2 h -142.81 l 30.64,707.95 -82.14,19.03 0.22,1.67 0.23,1.65 0.23,1.65 0.22,1.64 v 0 l 0.23,1.62 0.22,1.62 0.22,1.6 0.22,1.6 0.22,1.59 0.21,1.58 0.21,1.57 h 0.01 l 0.21,1.56 0.21,1.55 0.21,1.54 v 0.01 l 0.21,1.52 0.21,1.52 v 0 l 0.2,1.51 v 0 l 0.21,1.5 v 0 l 0.2,1.5 v 0 l 0.2,1.47 v 0 l 0.2,1.47 h 0.01 l 0.19,1.47 v 0 l 0.2,1.44 v 0.01 l 0.2,1.44 v 0 l 0.19,1.43 v 0 l 0.19,1.41 v 0 l 0.19,1.41 v 0.01 l 0.19,1.39 v 0 l 0.19,1.39 v 0 l 0.19,1.37 v 0 l 0.18,1.37 v 0 l 0.19,1.35 v 0 l 0.18,1.34 v 0.01 l 0.18,1.33 v 0 l 0.18,1.32 v 0 l 0.17,1.31 v 0.01 l 0.18,1.28 v 0.01 l 0.17,1.28 v 0.01 l 0.18,1.27 v 0 l 0.17,1.27 v 0 l 0.16,1.25 v 0 l 0.17,1.24 v 0 l 0.17,1.23 v 0.01 l 0.17,1.21 v 0 l 0.16,1.2 v 0.01 l 0.16,1.2 v 0 l 0.16,1.18 v 0.01 l 0.15,1.17 v 0 l 0.16,1.15 v 0 l 0.15,1.15 v 0 l 0.15,1.14 v 0.01 l 0.16,1.11 v 0 l 0.15,1.11 v 0.01 l 0.14,1.1 v 0 l 0.14,1.08 v 0.01 l 0.15,1.06 v 0 l 0.14,1.07 v 0 l 0.14,1.04 v 0.01 l 0.14,1.03 v 0.01 l 0.13,1.01 v 0.01 l 0.14,1.01 v 0.01 l 0.13,0.99 v 0.01 l 0.13,0.97 v 0.01 l 0.13,0.97 87.58,154.83 159.87,-61.37" /><path
         id="path322"
         style="fill:#38385f;fill-opacity:1;fill-rule:evenodd;stroke:none"
         d="m 2423.42,1785.57 c -52.44,-143.3 -66.71,-634.75 -23.5,-898.59 h 230.1 c -94.11,523.72 103.55,898.33 60.12,1031.05 -69.52,212.46 -232.24,-38.28 -266.72,-132.46" /><path
         id="path324"
         style="fill:#16131a;fill-opacity:1;fill-rule:evenodd;stroke:none"
         d="m 3444.75,2397.12 0.03,0.05 v 0.01 z m -101.04,-127.11 25.65,11.24 c 0,0 43.38,53.24 74.61,114.34 -6.1,-11.63 -46.51,-82.28 -105.67,-39.1 -64.32,46.98 -66.91,-27.41 -66.91,-27.41 0,0 38.91,-44.2 61.51,-54.53 2.92,-1.34 6.6,-2.88 10.81,-4.54 v 0" /><path
         id="path326"
         style="fill:#f04153;fill-opacity:1;fill-rule:evenodd;stroke:none"
         d="m 3316.43,2312.71 c -40.29,4.16 -76.33,-25.11 -80.51,-65.41 -4.17,-40.29 25.11,-76.33 65.39,-80.5 40.3,-4.17 76.35,25.1 80.52,65.4 4.18,40.28 -25.11,76.34 -65.4,80.51" /><path
         id="path328"
         style="fill:#f04153;fill-opacity:1;fill-rule:evenodd;stroke:none"
         d="m 2805.55,2364.79 c -1.83,-0.09 -3.64,-0.25 -5.44,-0.46 l -0.05,-0.01 v 0 c -33.18,-4.08 -60.35,-30.59 -63.94,-65.25 -4.17,-40.29 25.12,-76.35 65.4,-80.52 40.3,-4.16 76.35,25.12 80.52,65.41 2.43,23.41 -6.44,45.4 -22.21,60.51 0.03,-21.73 -5.65,-48.14 -33.41,-48.49 l 4.35,42.07 c 1.76,17.03 -13.49,26.23 -25.22,26.74" /><path
         id="path330"
         style="fill:#f78e73;fill-opacity:1;fill-rule:evenodd;stroke:none"
         d="m 3121.43,2705.81 v 0 c -137.45,14.23 -261.54,-86.57 -275.78,-224.01 l -23.52,-227.11 c -14.23,-137.44 86.57,-261.54 224.02,-275.77 v 0 c 137.44,-14.23 261.54,86.56 275.77,224.01 l 23.52,227.11 c 14.24,137.45 -86.57,261.54 -224.01,275.77" /><path
         id="path332"
         style="fill:#f46b62;fill-opacity:1;fill-rule:evenodd;stroke:none"
         d="m 2841.53,2441.97 -19.4,-187.28 c -11.92,-115.07 56.81,-220.75 160.14,-260.48 -146.22,60.58 -71.26,314.73 -71.26,314.73 29.61,5.04 76.31,60.23 103.46,92.35 27.14,32.11 48.16,64.52 95.01,63.57 46.85,-0.94 145.85,-25.54 145.85,-25.54 20.7,-48.94 58.77,-84.54 80.51,-101.99 l 9.6,92.7 c 2.87,27.69 1.06,54.83 -4.76,80.65 -6.06,3.56 -12.28,7.16 -18.85,10.86 -201.22,113.13 -372,21.61 -480.3,-79.57" /><path
         id="path334"
         style="fill:#16131a;fill-opacity:1;fill-rule:evenodd;stroke:none"
         d="m 3308.03,2501.11 -40.64,-17.26 c 0,0 -37.83,23.3 -81.92,13.18 0,0 -89.21,32.79 -136.48,14.52 -47.26,-18.27 -19.46,47.37 -10.8,50.25 8.67,2.87 98.2,8.55 137.27,1.04 39.08,-7.51 97.87,-16.68 97.87,-16.68 l 34.7,-45.05" /><path
         id="path336"
         style="fill:#16131a;fill-opacity:1;fill-rule:evenodd;stroke:none"
         d="m 2832.88,2376.93 24.08,-4.23 c 0,0 16.72,-76.13 -30.54,-76.72 l 4.35,42.07 c 0.3,2.93 0.1,5.61 -0.49,8.06 l 2.6,30.82" /><path
         id="path338"
         style="fill:#1e1c32;fill-opacity:1;fill-rule:evenodd;stroke:none"
         d="m 3185.47,2497.03 c -36.72,49.55 -96.73,59.68 -143.39,-9.91 -42.61,-63.58 -105.92,-173.6 -212.45,-164.62 l -0.53,1.95 0.26,-0.03 5.99,70.99 c 0,0 -8.97,-2.34 -19.86,-4.9 -5.69,37.09 -9.65,84.12 -3.68,127.22 12.34,89.21 136.45,219.52 276.46,224.54 140,5.02 241.28,-78.12 261.34,-125.54 20.07,-47.42 39.86,-154.98 39.86,-154.98 l -24.63,-35.23 -26.54,-70.03 c -64.4,62.65 -57.79,121.9 -85.78,151.75 -15.15,16.16 -37.82,16.21 -67.05,-11.21" /><path
         id="path340"
         style="fill:#16131a;fill-opacity:1;fill-rule:evenodd;stroke:none"
         d="m 3027.52,2465.09 c -42.25,-63.93 -102.87,-150.6 -197.89,-142.59 l -0.53,1.95 0.26,-0.03 5.99,70.99 c 0,0 -8.97,-2.34 -19.86,-4.9 -0.94,6.13 -1.83,12.55 -2.64,19.18 107.3,-31.15 214.32,55.12 214.67,55.4" /><path
         id="path342"
         style="fill:#43466c;fill-opacity:1;fill-rule:evenodd;stroke:none"
         d="m 3137.94,1898.9 c 0,0 65.38,-536.31 64.08,-553.72 -1.29,-17.42 -18.66,-101.28 -18.66,-101.28 0,0 31.56,52.91 39.3,96.76 7.74,43.86 28.38,340.54 28.38,340.54 l -34.82,18.7 32.25,1.94 -53.23,166.61 c 0,0 -6.1,12.37 -14.49,17.2 -8.38,4.85 -38.93,20.17 -39.42,20.4 -0.48,0.25 -8.14,1.08 -11.95,-1.44 0,0 6.33,-4.32 8.56,-5.71" /><path
         id="path344"
         style="fill:#43466c;fill-opacity:1;fill-rule:evenodd;stroke:none"
         d="m 2824.07,2010 c 0,0 93.03,-450.68 105.78,-581.69 5.23,-53.7 1.43,-101.14 -8.06,-145.22 17.14,134.01 -171.45,449.33 -171.45,449.33 l 49.02,23.22 -65.79,29.67 c 0,0 30.32,169.62 32.25,197.99 1.88,27.59 -12.74,32.72 -13.56,32.99 21.65,-0.99 45.51,-2.99 71.81,-6.29" /><path
         id="path346"
         style="fill:#141215;fill-opacity:1;fill-rule:evenodd;stroke:none"
         d="m 702.523,899.672 c 25.872,0 46.852,-20.981 46.852,-46.863 0,-25.86 -20.98,-46.84 -46.852,-46.84 -25.867,0 -46.847,20.98 -46.847,46.84 0,25.882 20.98,46.863 46.847,46.863 z M 962.828,687.941 h 81.442 c 32.46,0 59.03,26.551 59.03,59.008 v 0 c 0,32.461 -26.57,59.031 -59.03,59.031 H 829.109 c -25.742,0 -46.847,21.071 -46.847,46.829 v 0 c 0,25.773 21.09,46.863 46.847,46.863 H 6513.27 c 25.76,0 46.85,-21.09 46.85,-46.863 v 0 c 0,-25.758 -21.12,-46.829 -46.85,-46.829 H 6218.2 c -32.47,0 -59.02,-26.57 -59.02,-59.031 v 0 c 0,-32.457 26.55,-59.008 59.02,-59.008 h 69.15 c 51.54,0 93.68,-42.171 93.68,-93.691 v 0 c 0,-51.539 -42.18,-93.691 -93.68,-93.691 H 962.828 c -51.48,0 -93.687,42.152 -93.687,93.691 v 0 c 0,51.52 42.164,93.691 93.687,93.691 v 0" /><path
         id="path348"
         style="fill:#22273e;fill-opacity:1;fill-rule:evenodd;stroke:none"
         d="m 3445.28,3337.63 h 427 c 15.88,0 30.32,-6.51 40.79,-16.98 10.46,-10.47 16.97,-24.91 16.97,-40.78 v -197.26 c 0,-15.88 -6.51,-30.31 -16.97,-40.78 -10.47,-10.47 -24.91,-16.97 -40.79,-16.97 h -371.12 l -113.63,-113.64 v 368.65 c 0,15.87 6.5,30.31 16.97,40.78 10.47,10.47 24.91,16.98 40.78,16.98 z m 427,17.58 h -427 c -20.72,0 -39.57,-8.47 -53.21,-22.12 -13.66,-13.66 -22.13,-32.49 -22.13,-53.22 v -371.95 c 0,-3.27 0.98,-6.37 2.74,-9.01 1.75,-2.62 4.23,-4.7 7.27,-5.96 h 0.04 c 3.06,-1.26 6.27,-1.56 9.31,-0.96 3.11,0.62 6,2.13 8.34,4.47 l 110.81,110.81 h 363.83 c 20.73,0 39.58,8.47 53.22,22.12 13.65,13.66 22.13,32.49 22.13,53.22 v 197.26 c 0,20.73 -8.48,39.57 -22.13,53.22 -13.64,13.65 -32.49,22.12 -53.22,22.12 v 0" /><path
         id="path350"
         style="fill:#22273e;fill-opacity:1;fill-rule:evenodd;stroke:none"
         d="m 3875.84,3281.66 c 2.66,0 4.8,2.16 4.8,4.8 0,2.66 -2.14,4.81 -4.8,4.81 h -434.12 c -2.65,0 -4.81,-2.15 -4.81,-4.81 0,-2.64 2.16,-4.8 4.81,-4.8 h 434.12" /><path
         id="path352"
         style="fill:#22273e;fill-opacity:1;fill-rule:evenodd;stroke:none"
         d="m 3768.63,3234.75 c 2.66,0 4.81,2.15 4.81,4.81 0,2.65 -2.15,4.81 -4.81,4.81 h -326.91 c -2.65,0 -4.81,-2.16 -4.81,-4.81 0,-2.66 2.16,-4.81 4.81,-4.81 z m 107.21,0 c 2.66,0 4.8,2.15 4.8,4.81 0,2.65 -2.14,4.81 -4.8,4.81 h -45.99 c -2.64,0 -4.8,-2.16 -4.8,-4.81 0,-2.66 2.16,-4.81 4.8,-4.81 h 45.99 v 0" /><path
         id="path354"
         style="fill:#22273e;fill-opacity:1;fill-rule:evenodd;stroke:none"
         d="m 3875.84,3187.83 c 2.66,0 4.8,2.16 4.8,4.81 0,2.66 -2.14,4.81 -4.8,4.81 h -434.12 c -2.65,0 -4.81,-2.15 -4.81,-4.81 0,-2.65 2.16,-4.81 4.81,-4.81 h 434.12" /><path
         id="path356"
         style="fill:#22273e;fill-opacity:1;fill-rule:evenodd;stroke:none"
         d="m 3755.12,3124.23 c 2.65,0 4.8,2.16 4.8,4.81 0,2.66 -2.15,4.81 -4.8,4.81 h -313.4 c -2.65,0 -4.81,-2.15 -4.81,-4.81 0,-2.65 2.16,-4.81 4.81,-4.81 h 313.4" /><path
         id="path358"
         style="fill:#22273e;fill-opacity:1;fill-rule:evenodd;stroke:none"
         d="m 3615.18,3073.34 c 2.65,0 4.81,2.16 4.81,4.82 0,2.65 -2.16,4.8 -4.81,4.8 h -173.46 c -2.65,0 -4.81,-2.15 -4.81,-4.8 0,-2.66 2.16,-4.82 4.81,-4.82 h 173.46" /><path
         id="path360"
         style="fill:#22273e;fill-opacity:1;fill-rule:evenodd;stroke:none"
         d="m 3714.57,3073.34 c 2.65,0 4.8,2.16 4.8,4.82 0,2.65 -2.15,4.8 -4.8,4.8 h -62.02 c -2.65,0 -4.81,-2.15 -4.81,-4.8 0,-2.66 2.16,-4.82 4.81,-4.82 h 62.02" />
         
         </g></g></svg>